<?xml version="1.0" encoding="UTF-8"?>
<svg version="1.1" xmlns="http://www.w3.org/2000/svg" width="600" height="600">
<path d="M0 0 C1.33345459 0.01885254 1.33345459 0.01885254 2.69384766 0.03808594 C16.04569374 0.29879144 28.92165829 2.38966341 42 5 C42.90089355 5.17515137 43.80178711 5.35030273 44.72998047 5.53076172 C86.76422505 13.83315865 124.54355957 32.34556896 158.92285156 57.49194336 C160.89441564 58.92334337 162.88233351 60.32867527 164.875 61.73046875 C167.91060849 63.93507941 170.38975408 66.31724724 173 69 C173.99 69.66 174.98 70.32 176 71 C176 71.66 176 72.32 176 73 C176.57274658 73.2482251 177.14549316 73.4964502 177.7355957 73.75219727 C180.34704822 75.19124135 182.11907661 76.86008748 184.23046875 78.96484375 C185.42869263 80.15702515 185.42869263 80.15702515 186.65112305 81.37329102 C187.48812744 82.21947998 188.32513184 83.06566895 189.1875 83.9375 C190.47297729 85.23095337 190.47297729 85.23095337 191.78442383 86.55053711 C197.59180688 92.44544916 202.96634196 98.42918187 208 105 C208.91458984 106.09634766 208.91458984 106.09634766 209.84765625 107.21484375 C224.27301546 124.54304732 235.36715502 144.04456575 245.15820312 164.26318359 C245.87309169 165.7381596 246.59939095 167.20759646 247.328125 168.67578125 C259.52149137 194.15991697 266.40978344 222.09741734 270 250 C270.11714355 250.88961426 270.23428711 251.77922852 270.35498047 252.69580078 C273.50863983 277.5455119 272.27148857 302.23015797 269 327 C268.87141602 327.99418945 268.74283203 328.98837891 268.61035156 330.01269531 C264.33444541 361.64134462 253.51871755 392.44034812 237.97558594 420.24560547 C236.57222207 422.76927233 235.23049453 425.32537934 233.875 427.875 C226.24996638 441.71225448 216.76494134 454.26015268 207.0625 466.6875 C206.61422852 467.26346924 206.16595703 467.83943848 205.70410156 468.43286133 C203.29767171 471.4853949 200.81020549 474.31535688 198 477 C195.35051656 479.58154797 192.8697998 482.15624024 190.5 485 C188.11407192 487.8631137 185.69428122 490.42546461 183 493 C182.35933594 493.61230469 181.71867187 494.22460938 181.05859375 494.85546875 C173.7682177 501.62774701 165.90049448 507.58650698 157.94042969 513.54296875 C156.33896857 514.74547503 154.74980379 515.96433868 153.1640625 517.1875 C144.28767225 523.90779546 134.63684147 529.45624535 125 535 C124.236875 535.44134277 123.47375 535.88268555 122.6875 536.33740234 C85.08977953 557.8253601 40.49762427 569.42152814 -2.6875 570.75 C-3.34686554 570.77057465 -4.00623108 570.79114929 -4.68557739 570.81234741 C-43.0819536 571.93009826 -79.92906834 564.7567929 -116 552 C-116.680625 551.7628125 -117.36125 551.525625 -118.0625 551.28125 C-149.89281756 540.11271752 -180.00990487 519.65832835 -204.7265625 497.046875 C-206.6491671 495.31587017 -208.60402106 493.67548789 -210.625 492.0625 C-211.40875 491.381875 -212.1925 490.70125 -213 490 C-213 489.34 -213 488.68 -213 488 C-213.53496094 487.79890625 -214.06992188 487.5978125 -214.62109375 487.390625 C-218.01339314 485.40760598 -220.44124097 482.6272095 -223.0625 479.75 C-223.63395752 479.12738281 -224.20541504 478.50476563 -224.79418945 477.86328125 C-237.80477748 463.51572945 -249.14761463 447.65474513 -259 431 C-259.93392578 429.45699219 -259.93392578 429.45699219 -260.88671875 427.8828125 C-279.89799674 395.72174589 -293.37907637 358.29680318 -297.0625 320.9375 C-297.1860083 319.71160156 -297.1860083 319.71160156 -297.31201172 318.4609375 C-299.52257935 295.80371358 -299.38558643 273.65171111 -297 251 C-296.90879883 250.12118164 -296.81759766 249.24236328 -296.72363281 248.33691406 C-291.52280178 200.72649944 -272.27915344 153.86786307 -243.35546875 115.7890625 C-242.05797578 114.07652134 -240.77741145 112.35254691 -239.5 110.625 C-233.50572119 102.58500697 -226.96546153 95.20818021 -220 88 C-219.3184082 87.29117676 -218.63681641 86.58235352 -217.93457031 85.85205078 C-208.49811701 76.08379826 -198.94692413 67.04498361 -188 59 C-186.58319609 57.91684616 -185.16650647 56.83354279 -183.75 55.75 C-182.50334584 54.82878819 -181.25327808 53.91217972 -180 53 C-179.28199219 52.47277344 -178.56398438 51.94554687 -177.82421875 51.40234375 C-125.28385831 13.65239574 -63.87395869 -0.92814223 0 0 Z M-99 97 C-99 122.08 -99 147.16 -99 173 C-104.28 173.99 -109.56 174.98 -115 176 C-129.92094421 180.37078164 -142.35723656 187.70846347 -154 198 C-154.63550781 198.55171875 -155.27101562 199.1034375 -155.92578125 199.671875 C-164.11092388 207.27370862 -172.66039122 219.32954267 -176 230 C-175.26480817 232.31363048 -175.26480817 232.31363048 -174 234 C-168.11845668 233.59437632 -164.56079541 231.00915459 -159.875 227.75 C-153.1825253 223.25969122 -146.67909996 219.58701386 -139 217 C-138.29875 216.74605469 -137.5975 216.49210937 -136.875 216.23046875 C-129.38510814 213.88987754 -121.75248361 214.91778549 -114.6875 218.0625 C-108.74743016 221.39082485 -105.13040526 225.30927898 -103.11685181 231.88343811 C-101.44848085 239.11289559 -100.48972645 245.96045775 -100.3359375 253.37109375 C-100.28655533 255.10159218 -100.28655533 255.10159218 -100.23617554 256.86705017 C-99.61375724 282.07794293 -99.68391764 307.31779626 -99.59863281 332.53491211 C-99.57751981 338.62331367 -99.54212419 344.71149683 -99.49787521 350.79977226 C-99.48389099 353.0866888 -99.47503344 355.37364363 -99.47182083 357.66060066 C-99.42515777 387.63685062 -95.35305395 415.96299866 -76 440 C-75.32324219 440.85335938 -74.64648438 441.70671875 -73.94921875 442.5859375 C-68.19369136 449.42522964 -61.52792138 454.30271728 -54 459 C-53.02675781 459.6290625 -52.05351562 460.258125 -51.05078125 460.90625 C-34.8138955 470.58470739 -15.63678455 473.23140685 2.9375 473.25 C3.63152924 473.25100708 4.32555847 473.25201416 5.0406189 473.25305176 C19.7273947 473.23861069 31.17262217 471.53095113 45 466 C45 444.55 45 423.1 45 401 C42.19816195 401.56036761 39.39858343 402.13372511 36.609375 402.75390625 C20.3285244 406.16497515 4.36771772 407.26613815 -10.484375 398.69921875 C-18.52774904 393.26619436 -22.63489873 384.90492686 -24.59807396 375.60826302 C-25.35541962 370.69353623 -25.28578267 365.77701189 -25.2746582 360.81420898 C-25.27976913 359.62605591 -25.28488007 358.43790283 -25.29014587 357.21374512 C-25.30160131 353.98032446 -25.30412591 350.74706416 -25.30158257 347.51362872 C-25.30050673 344.80491399 -25.30541152 342.09622246 -25.310188 339.38751274 C-25.32124794 332.99473338 -25.32173964 326.6020128 -25.31567383 320.20922852 C-25.30962858 313.63181345 -25.32196695 307.05461199 -25.3432439 300.47723335 C-25.36089482 294.81071793 -25.366856 289.14427031 -25.36360615 283.47772843 C-25.36179962 280.10171024 -25.36436657 276.72584468 -25.37832069 273.34985161 C-25.39067633 269.58519948 -25.38389861 265.82104089 -25.37231445 262.05639648 C-25.37995819 260.94915726 -25.38760193 259.84191803 -25.39547729 258.7011261 C-25.33564528 249.8902277 -23.76716558 243.17168787 -17.6796875 236.5390625 C-11.32867881 230.71976617 -4.5217804 229.55604192 3.83203125 229.66796875 C11.09752984 230.4294575 16.29493673 233.70417652 20.9375 239.25 C23.65344035 243.04976632 25.22818137 246.74115752 26.39453125 251.25 C26.84580571 253.21417061 26.84580571 253.21417061 29 254 C33.27709413 254.5052634 37.57961035 254.75536144 41.875 255.0625 C43.05320312 255.15337891 44.23140625 255.24425781 45.4453125 255.33789062 C52.97839099 255.88959736 60.4476852 256.11694913 68 256 C69.45427812 252.61969191 70.39967476 249.4792347 71.00561523 245.8527832 C71.17596786 244.85015945 71.3463205 243.84753571 71.52183533 242.81452942 C71.69896561 241.73749252 71.87609589 240.66045563 72.05859375 239.55078125 C72.34332298 237.86084297 72.34332298 237.86084297 72.63380432 236.13676453 C73.24029734 232.52953548 73.83900532 228.9210638 74.4375 225.3125 C74.8360766 222.93415894 75.23516006 220.55590276 75.63476562 218.17773438 C76.40814152 213.57058663 77.17655805 208.96265566 77.94091797 204.35400391 C78.59981513 200.38537388 79.26900884 196.41886419 79.95361328 192.45458984 C80.09565689 191.62549606 80.2377005 190.79640228 80.38404846 189.94218445 C80.64123643 188.443896 80.90149007 186.94612866 81.16563416 185.4490509 C81.76699774 181.9254696 82.13408991 178.57558716 82 175 C77.94871668 174.05071317 74.09733421 173.81906642 69.94140625 173.71875 C69.22834824 173.70065781 68.51529022 173.68256561 67.78062439 173.66392517 C65.3746704 173.60456757 62.9686213 173.55210406 60.5625 173.5 C58.84895571 173.45982847 57.13541412 173.41954176 55.421875 173.37915039 C28.61808077 172.76639719 1.80709143 172.41151237 -25 172 C-25.33 147.25 -25.66 122.5 -26 97 C-50.09 97 -74.18 97 -99 97 Z M104 176 C103.41197099 178.0911433 103.41197099 178.0911433 103.08618164 180.66137695 C102.86068382 182.15608269 102.86068382 182.15608269 102.63063049 183.6809845 C102.47537399 184.77239243 102.32011749 185.86380035 102.16015625 186.98828125 C101.99253281 188.11582321 101.82490936 189.24336517 101.65220642 190.40507507 C101.1138411 194.03969394 100.58797829 197.67599784 100.0625 201.3125 C99.7124186 203.69217955 99.36151649 206.07173852 99.00976562 208.45117188 C98.32193644 213.1092872 97.64134434 217.7683789 96.96533203 222.42822266 C96.3586754 226.59317276 95.73192026 230.75389125 95.07763672 234.91162109 C94.93651962 235.81655807 94.79540253 236.72149506 94.65000916 237.65385437 C94.39169895 239.30163945 94.12876848 240.94871112 93.85987854 242.59480286 C93.10214996 247.45531212 92.88898879 252.07966295 93 257 C97.53897705 257.02465392 102.07791543 257.04283789 106.61694336 257.05493164 C108.16219766 257.0599714 109.70744716 257.0668032 111.25268555 257.07543945 C113.46925029 257.08752076 115.68575218 257.09323173 117.90234375 257.09765625 C118.94454323 257.10539818 118.94454323 257.10539818 120.00779724 257.11329651 C121.6722933 257.11349277 123.33665499 257.06189129 125 257 C126.67221903 255.32778097 126.13006757 253.30032145 126.1328125 251.00463867 C126.13482666 249.93748123 126.13684082 248.87032379 126.13891602 247.77082825 C126.13432373 246.60250961 126.12973145 245.43419098 126.125 244.23046875 C126.12234131 243.02239059 126.11968262 241.81431244 126.11694336 240.56962585 C126.04854037 227.13909842 125.5454728 213.73058179 125 200.3125 C124.90316721 197.83400303 124.80681133 195.35548738 124.7109375 192.87695312 C124.47941807 186.91774363 124.24215705 180.95878625 124 175 C121.04160645 174.97310551 118.08345573 174.95321259 115.125 174.9375 C113.86236328 174.92493164 113.86236328 174.92493164 112.57421875 174.91210938 C111.76855469 174.90888672 110.96289062 174.90566406 110.1328125 174.90234375 C109.38918457 174.89710693 108.64555664 174.89187012 107.87939453 174.88647461 C105.90867432 174.88213364 105.90867432 174.88213364 104 176 Z " fill="#ED6D17" transform="translate(315,18)"/>
<path d="M0 0 C1.33345459 0.01885254 1.33345459 0.01885254 2.69384766 0.03808594 C16.04569374 0.29879144 28.92165829 2.38966341 42 5 C42.90089355 5.17515137 43.80178711 5.35030273 44.72998047 5.53076172 C86.76422505 13.83315865 124.54355957 32.34556896 158.92285156 57.49194336 C160.89441564 58.92334337 162.88233351 60.32867527 164.875 61.73046875 C167.91060849 63.93507941 170.38975408 66.31724724 173 69 C173.99 69.66 174.98 70.32 176 71 C176 71.66 176 72.32 176 73 C176.57274658 73.2482251 177.14549316 73.4964502 177.7355957 73.75219727 C180.34704822 75.19124135 182.11907661 76.86008748 184.23046875 78.96484375 C185.02928467 79.75963135 185.82810059 80.55441895 186.65112305 81.37329102 C187.48812744 82.21947998 188.32513184 83.06566895 189.1875 83.9375 C190.04448486 84.79980225 190.90146973 85.66210449 191.78442383 86.55053711 C197.59180688 92.44544916 202.96634196 98.42918187 208 105 C208.91458984 106.09634766 208.91458984 106.09634766 209.84765625 107.21484375 C224.27301546 124.54304732 235.36715502 144.04456575 245.15820312 164.26318359 C245.87309169 165.7381596 246.59939095 167.20759646 247.328125 168.67578125 C259.52149137 194.15991697 266.40978344 222.09741734 270 250 C270.11714355 250.88961426 270.23428711 251.77922852 270.35498047 252.69580078 C273.50863983 277.5455119 272.27148857 302.23015797 269 327 C268.87141602 327.99418945 268.74283203 328.98837891 268.61035156 330.01269531 C264.85762735 357.77139576 256.47928582 387.87890143 242 412 C241.34 412 240.68 412 240 412 C239.60746746 407.55129785 240.84694043 404.85756507 243 401 C243.66 401 244.32 401 245 401 C245.06058594 400.37351562 245.12117188 399.74703125 245.18359375 399.1015625 C245.26738281 398.28429687 245.35117187 397.46703125 245.4375 396.625 C245.51871094 395.81289063 245.59992188 395.00078125 245.68359375 394.1640625 C246 392 246 392 247 390 C247.66 390 248.32 390 249 390 C249 387.69 249 385.38 249 383 C250.32 382.67 251.64 382.34 253 382 C253.04898437 381.21753906 253.09796875 380.43507813 253.1484375 379.62890625 C253.22320313 378.61699219 253.29796875 377.60507812 253.375 376.5625 C253.44460938 375.55316406 253.51421875 374.54382813 253.5859375 373.50390625 C253.72257812 372.67761719 253.85921875 371.85132813 254 371 C254.66 370.67 255.32 370.34 256 370 C255.67 367.36 255.34 364.72 255 362 C255.66 362 256.32 362 257 362 C258.59178775 359.34702041 259.06854143 357.50307461 259.5 354.375 C260 351 260 351 262 349 C262.46380081 346.58063972 262.46380081 346.58063972 262.6328125 343.7734375 C262.71660156 342.7421875 262.80039062 341.7109375 262.88671875 340.6484375 C262.96535156 339.56820313 263.04398438 338.48796875 263.125 337.375 C263.25455078 335.74304688 263.25455078 335.74304688 263.38671875 334.078125 C263.59925957 331.38594123 263.80332432 328.69338172 264 326 C264.66 326 265.32 326 266 326 C265.98839844 325.26136719 265.97679687 324.52273438 265.96484375 323.76171875 C265.81188119 306.56435644 265.81188119 306.56435644 268 300 C268.08669529 298.48092376 268.117694 296.95830999 268.11352539 295.43676758 C268.11341209 294.05567558 268.11341209 294.05567558 268.11329651 292.64668274 C268.10813522 291.65597275 268.10297394 290.66526276 268.09765625 289.64453125 C268.0962413 288.62775803 268.09482635 287.6109848 268.09336853 286.56340027 C268.08776707 283.31307036 268.07521432 280.06280912 268.0625 276.8125 C268.05748519 274.61002704 268.05292225 272.40755299 268.04882812 270.20507812 C268.03779717 264.80336196 268.02105762 259.40168588 268 254 C267.34 254 266.68 254 266 254 C264.80452886 249.81585102 263.86710291 246.17318563 264 241.8125 C264.24369869 238.16244715 264.24369869 238.16244715 263.0234375 235.6484375 C261.83851356 232.58210761 261.72881982 230.09081053 261.625 226.8125 C261.29229793 221.34756051 260.14313474 217.28620217 257.91015625 212.33203125 C256.72093348 209.28496689 256.51722904 206.44740122 256.26171875 203.2109375 C255.43520836 196.22877506 252.01778145 186.01778145 247 181 C246.85884839 178.32941149 246.95752893 175.67567762 247 173 C246.34 173 245.68 173 245 173 C244.34 170.36 243.68 167.72 243 165 C242.34 165 241.68 165 241 165 C240.566875 163.783125 240.13375 162.56625 239.6875 161.3125 C238.42537584 157.94486965 236.90962291 155.05539666 235 152 C234.2561154 150.61195446 233.52783851 149.21547025 232.8125 147.8125 C232.46832031 147.13832031 232.12414062 146.46414062 231.76953125 145.76953125 C231 144 231 144 231 142 C230.34 142 229.68 142 229 142 C228.13375 140.39125 228.13375 140.39125 227.25 138.75 C225.93473075 136.42155515 224.90895887 134.91447652 222.9375 133.0625 C220.96320768 130.96083398 220.49889097 129.85516719 219.625 127.1875 C217.66530982 121.42687228 214.02007023 117.34671349 209 114 C209 113.01 209 112.02 209 111 C208.34 111 207.68 111 207 111 C206.9175 110.38125 206.835 109.7625 206.75 109.125 C206.18741541 106.81562433 206.18741541 106.81562433 203.9375 105.75 C203.298125 105.5025 202.65875 105.255 202 105 C202 103.68 202 102.36 202 101 C201.34 101 200.68 101 200 101 C200 100.34 200 99.68 200 99 C199.01 99 198.02 99 197 99 C196.34 97.02 195.68 95.04 195 93 C194.34 93 193.68 93 193 93 C191.375 91.625 191.375 91.625 190 90 C190 89.34 190 88.68 190 88 C189.01 87.67 188.02 87.34 187 87 C187 86.34 187 85.68 187 85 C186.01 84.67 185.02 84.34 184 84 C184 83.34 184 82.68 184 82 C183.34 82 182.68 82 182 82 C182 81.34 182 80.68 182 80 C180.88625 79.773125 179.7725 79.54625 178.625 79.3125 C177.42875 78.879375 176.2325 78.44625 175 78 C174.29289322 76.35008418 173.63437344 74.6792238 173 73 C169.42823127 69.29239219 165.70271256 66.14047231 161 64 C161 63.34 161 62.68 161 62 C159.9790625 61.690625 159.9790625 61.690625 158.9375 61.375 C156.2911406 60.13627858 154.86693247 59.10704949 152.75 57.1875 C149.42781781 54.19971689 145.93112215 52.21961659 141.984375 50.16015625 C140 49 140 49 138.0625 46.8125 C134.6695325 43.83080129 130.37375489 43.6343614 126 43 C125.67 41.68 125.34 40.36 125 39 C123.68 38.67 122.36 38.34 121 38 C120.34 39.32 119.68 40.64 119 42 C118.34 42 117.68 42 117 42 C117 40.02 117 38.04 117 36 C104.27351877 29.13710368 104.27351877 29.13710368 91.19921875 22.97265625 C89 22 89 22 87.03515625 20.91015625 C84.56772014 19.80667714 82.43832753 19.58723638 79.75 19.375 C78.85796875 19.30023438 77.9659375 19.22546875 77.046875 19.1484375 C76.03367187 19.07496094 76.03367187 19.07496094 75 19 C75 18.34 75 17.68 75 17 C73.85660156 16.72285156 72.71320313 16.44570313 71.53515625 16.16015625 C70.04422535 15.79445622 68.55334239 15.42856071 67.0625 15.0625 C66.30775391 14.88009766 65.55300781 14.69769531 64.77539062 14.50976562 C59.11328125 13.11328125 59.11328125 13.11328125 58 12 C54.4520159 11.55131763 50.90522861 11.17929632 47.34570312 10.83789062 C43.40909344 10.42155099 40.50487718 9.91310993 37 8 C35.01139713 7.58660837 33.00901179 7.2363405 31 6.9375 C25.24497834 6.06705297 25.24497834 6.06705297 23.19287109 5.50537109 C12.31555793 2.99857548 0.20605992 3.81369961 -10.90185547 3.81469727 C-13.60009783 3.81252009 -16.29792367 3.79431567 -18.99609375 3.77539062 C-28.7792165 3.74498474 -38.37809721 4.13188482 -48.09732056 5.29804993 C-53.75510479 5.96403992 -59.30487698 6.10633001 -65 6 C-65 5.34 -65 4.68 -65 4 C-43.22998617 0.38681399 -22.06090282 -0.32056344 0 0 Z " fill="#D46920" transform="translate(315,18)"/>
<path d="M0 0 C0 25.08 0 50.16 0 76 C-5.28 77.32 -10.56 78.64 -16 80 C-41.42678047 87.98332417 -61.08353991 103.6917353 -73.5 127.4375 C-75.04127203 130.31604687 -75.04127203 130.31604687 -76 133 C-75.67 133.99 -75.34 134.98 -75 136 C-69.11845668 135.59437632 -65.56079541 133.00915459 -60.875 129.75 C-54.1825253 125.25969122 -47.67909996 121.58701386 -40 119 C-39.29875 118.74605469 -38.5975 118.49210937 -37.875 118.23046875 C-30.43026177 115.90398805 -22.79187741 116.90713895 -15.75 120 C-9.53465282 123.47822291 -5.24844389 128.07203553 -3.06802368 134.93226624 C-1.43509224 142.14142429 -0.48917228 148.9871614 -0.3359375 156.37109375 C-0.28655533 158.10159218 -0.28655533 158.10159218 -0.23617554 159.86705017 C0.38624276 185.07794293 0.31608236 210.31779626 0.40136719 235.53491211 C0.42248019 241.62331367 0.45787581 247.71149683 0.50212479 253.79977226 C0.51610901 256.0866888 0.52496656 258.37364363 0.52817917 260.66060066 C0.58099377 294.58858475 6.50964273 324.02630088 29.90625 349.9296875 C32.7833718 352.77460271 35.91979489 355.15230718 39.21484375 357.4921875 C41 359 41 359 42 362 C40.02 361.34 38.04 360.68 36 360 C36 359.34 36 358.68 36 358 C33.66785852 356.79371992 31.50357861 355.8345262 29 355 C29 354.34 29 353.68 29 353 C28.34 353 27.68 353 27 353 C27 352.34 27 351.68 27 351 C26.01 350.67 25.02 350.34 24 350 C22.97388051 348.34928604 21.97691857 346.68029994 21 345 C19.9171875 343.9171875 19.9171875 343.9171875 18.8125 342.8125 C18.214375 342.214375 17.61625 341.61625 17 341 C17 340.34 17 339.68 17 339 C16.34 339 15.68 339 15 339 C14.01 336.03 13.02 333.06 12 330 C11.34 330 10.68 330 10 330 C9.505 326.535 9.505 326.535 9 323 C8.34 323 7.68 323 7 323 C6.67 320.03 6.34 317.06 6 314 C5.34 314 4.68 314 4 314 C2.09391902 310.78817851 1.77733753 308.46117397 1.875 304.75 C1.89304687 303.85796875 1.91109375 302.9659375 1.9296875 302.046875 C1.95289063 301.37140625 1.97609375 300.6959375 2 300 C1.34 300 0.68 300 0 300 C-0.32046944 297.83449774 -0.63073796 295.6674865 -0.9375 293.5 C-1.11152344 292.2934375 -1.28554687 291.086875 -1.46484375 289.84375 C-3.21990635 275.2026491 -3.1686515 260.48315225 -3.22979546 245.76085281 C-3.24642085 241.90061266 -3.2696583 238.04046162 -3.29469299 234.18026733 C-3.36492192 223.21706668 -3.42575976 212.25383403 -3.47680664 201.29052734 C-3.50824843 194.55469165 -3.5499358 187.81898003 -3.59700203 181.08323288 C-3.61295585 178.52930054 -3.62530773 175.97534296 -3.63390923 173.42137527 C-3.64611782 169.85192897 -3.6702854 166.28274186 -3.69702148 162.71337891 C-3.69761063 161.67108124 -3.69819977 160.62878357 -3.69880676 159.55490112 C-3.77970671 151.36782663 -4.87783062 143.61702281 -7.625 135.875 C-7.88539063 135.12992188 -8.14578125 134.38484375 -8.4140625 133.6171875 C-8.60742188 133.08351562 -8.80078125 132.54984375 -9 132 C-9.99 132 -10.98 132 -12 132 C-14 130 -14 130 -14.75 127 C-15.69142479 123.76544513 -15.69142479 123.76544513 -18.6875 122.828125 C-27.02319261 120.74420185 -36.81960907 121.31192022 -45 124 C-45.66 124.66 -46.32 125.32 -47 126 C-48.32496707 126.6831431 -49.65934201 127.34818838 -51 128 C-52.32118136 128.81950016 -53.63367453 129.6531589 -54.9375 130.5 C-57.19971045 131.93692256 -59.18575223 133.07343693 -61.6875 134.0625 C-64.58201235 135.23595095 -66.61720739 137.00360619 -69 139 C-72.46721329 140.73360665 -76.23852315 139.48361845 -80 139 C-79.67 136.03 -79.34 133.06 -79 130 C-78.34 130 -77.68 130 -77 130 C-76.85304687 129.45472656 -76.70609375 128.90945312 -76.5546875 128.34765625 C-73.93031937 119.52434961 -68.75435759 111.32712412 -62 105 C-61.34 105 -60.68 105 -60 105 C-59.67 103.35 -59.34 101.7 -59 100 C-58.34 100 -57.68 100 -57 100 C-56.34 98.68 -55.68 97.36 -55 96 C-54.34 96 -53.68 96 -53 96 C-53 95.34 -53 94.68 -53 94 C-51.845 93.443125 -50.69 92.88625 -49.5 92.3125 C-45.75016314 90.45752751 -42.30689898 88.3179555 -38.859375 85.953125 C-37 85 -37 85 -33 85 C-33 84.34 -33 83.68 -33 83 C-29.14243493 80.84694043 -26.44870215 79.60746746 -22 80 C-22 79.34 -22 78.68 -22 78 C-19.18738909 76.47224089 -16.63234395 75.57576872 -13.5 74.9375 C-10.648594 74.34671211 -7.82302585 73.71427294 -5 73 C-4.16891058 64.56857427 -3.84024654 56.22379352 -3.83203125 47.75390625 C-3.82870285 46.53976547 -3.82537445 45.32562469 -3.82194519 44.07469177 C-3.8169188 41.53099951 -3.81453552 38.98730074 -3.81469727 36.44360352 C-3.81249229 32.54888267 -3.79424094 28.65443721 -3.77539062 24.75976562 C-3.7724595 22.2786468 -3.77047283 19.79752663 -3.76953125 17.31640625 C-3.75875298 15.57418541 -3.75875298 15.57418541 -3.74775696 13.79676819 C-3.7523719 12.17368996 -3.7523719 12.17368996 -3.75708008 10.51782227 C-3.75565506 9.5702858 -3.75423004 8.62274933 -3.75276184 7.64649963 C-4.02073514 4.77804587 -4.80768074 2.60922484 -6 0 C-2.25 -1.125 -2.25 -1.125 0 0 Z " fill="#CE6827" transform="translate(216,115)"/>
<path d="M0 0 C6.74407879 4.80719803 10.497698 10.52961127 12.2578125 18.609375 C12.2578125 19.269375 12.2578125 19.929375 12.2578125 20.609375 C16.16773876 20.89980018 20.07804969 21.18432631 23.98876953 21.46386719 C25.95757303 21.60575436 27.9260581 21.75203849 29.89453125 21.8984375 C37.7065318 22.45360505 45.42624184 22.7063604 53.2578125 22.609375 C54.5778125 15.349375 55.8978125 8.089375 57.2578125 0.609375 C57.9178125 0.609375 58.5778125 0.609375 59.2578125 0.609375 C59.74858724 9.84321082 58.17156168 17.86812745 55.2578125 26.609375 C46.92347615 26.29932971 38.59024475 25.96704494 30.2578125 25.609375 C29.3807666 25.57199219 28.5037207 25.53460938 27.60009766 25.49609375 C25.42280218 25.39854224 23.24665805 25.28850289 21.0703125 25.171875 C19.28560547 25.08099609 19.28560547 25.08099609 17.46484375 24.98828125 C14.16836155 24.5988065 11.35904531 23.77174906 8.2578125 22.609375 C8.12503906 21.70574219 7.99226563 20.80210937 7.85546875 19.87109375 C7.59056641 18.10185547 7.59056641 18.10185547 7.3203125 16.296875 C7.05927734 14.53923828 7.05927734 14.53923828 6.79296875 12.74609375 C6.33688219 9.59296097 6.33688219 9.59296097 5.2578125 6.609375 C4.5153125 6.526875 3.7728125 6.444375 3.0078125 6.359375 C0.2578125 5.609375 0.2578125 5.609375 -1.6796875 3.609375 C-5.87542943 -0.45922323 -12.04393396 0.4933091 -17.5703125 0.4765625 C-19.78980184 0.46993777 -19.78980184 0.46993777 -21.7421875 1.609375 C-21.2471875 2.599375 -21.2471875 2.599375 -20.7421875 3.609375 C-23.3821875 3.939375 -26.0221875 4.269375 -28.7421875 4.609375 C-28.835 5.4446875 -28.835 5.4446875 -28.9296875 6.296875 C-30.08093573 9.57350457 -32.22378414 11.27524506 -34.7421875 13.609375 C-38.00156851 16.86875601 -37.86802513 20.20794132 -37.89608765 24.66574097 C-37.90468811 25.68594833 -37.91328857 26.7061557 -37.92214966 27.75727844 C-37.92640961 28.87104355 -37.93066956 29.98480865 -37.93505859 31.13232422 C-37.94323608 32.31010941 -37.95141357 33.48789459 -37.95983887 34.70137024 C-37.98468113 38.60558728 -38.00137011 42.50979661 -38.015625 46.4140625 C-38.02098876 47.76341889 -38.02636628 49.11277522 -38.03175735 50.4621315 C-38.05338604 56.08279684 -38.07211542 61.7034594 -38.08337975 67.32415581 C-38.09956924 75.34709629 -38.13262407 83.36954868 -38.18978059 91.39230525 C-38.22869023 97.04945786 -38.2480376 102.70648116 -38.25330031 108.36376393 C-38.25692803 111.73361582 -38.27122998 115.10253594 -38.30140305 118.47231674 C-39.4642978 140.05434072 -39.4642978 140.05434072 -30.57235718 158.8276062 C-29.66642319 159.70958176 -29.66642319 159.70958176 -28.7421875 160.609375 C-28.7421875 161.269375 -28.7421875 161.929375 -28.7421875 162.609375 C-28.0821875 162.609375 -27.4221875 162.609375 -26.7421875 162.609375 C-26.7421875 163.269375 -26.7421875 163.929375 -26.7421875 164.609375 C-25.0921875 164.609375 -23.4421875 164.609375 -21.7421875 164.609375 C-21.7421875 165.269375 -21.7421875 165.929375 -21.7421875 166.609375 C-20.35 166.795 -20.35 166.795 -18.9296875 166.984375 C-15.7421875 167.609375 -15.7421875 167.609375 -12.7421875 169.609375 C-8.02314371 171.1823896 -3.24756827 170.79984906 1.6953125 170.796875 C3.31953125 170.7978418 3.31953125 170.7978418 4.9765625 170.79882812 C12.26463312 170.7505918 19.15456547 170.35403217 26.2578125 168.609375 C26.5878125 167.289375 26.9178125 165.969375 27.2578125 164.609375 C29.6953125 164.984375 29.6953125 164.984375 32.2578125 165.609375 C33.65237979 168.39850958 33.40824036 170.7110237 33.43481445 173.83154297 C33.45406731 175.79400467 33.45406731 175.79400467 33.47370911 177.79611206 C33.48187577 179.23125837 33.48931964 180.66640894 33.49609375 182.1015625 C33.50016928 182.82288486 33.5042448 183.54420723 33.50844383 184.28738785 C33.52930267 188.10451217 33.54360572 191.92160054 33.55297852 195.73876953 C33.56404889 199.68226042 33.5984557 203.62518795 33.63815022 207.56847954 C33.66428705 210.60024062 33.67266763 213.63186678 33.67625999 216.66373062 C33.68113282 218.11741063 33.69276677 219.57108433 33.71129799 221.02465439 C33.73562453 223.05910423 33.73231103 225.09382773 33.7277832 227.12841797 C33.73364944 228.28598602 33.73951569 229.44355408 33.74555969 230.63619995 C33.15331955 234.24633576 32.08293296 235.3675347 29.2578125 237.609375 C25.36045796 239.78730842 21.42437461 239.98023555 17.05078125 240.265625 C14.07770431 240.56429949 14.07770431 240.56429949 10.56665039 241.61206055 C6.51491408 242.63879254 2.71465103 242.8823016 -1.4765625 242.91015625 C-2.54502411 242.91828339 -2.54502411 242.91828339 -3.6350708 242.92657471 C-5.9209697 242.93795353 -8.20628787 242.93173939 -10.4921875 242.921875 C-11.26965332 242.92138153 -12.04711914 242.92088806 -12.84814453 242.92037964 C-25.84306819 242.89507747 -39.29102526 242.75976241 -51.7421875 238.609375 C-51.7421875 237.949375 -51.7421875 237.289375 -51.7421875 236.609375 C-52.53882813 236.43921875 -53.33546875 236.2690625 -54.15625 236.09375 C-65.12532312 233.58500822 -65.12532312 233.58500822 -69.7421875 229.609375 C-69.7421875 228.949375 -69.7421875 228.289375 -69.7421875 227.609375 C-66.03248382 227.98034537 -63.54672375 228.71176077 -60.21484375 230.45703125 C-55.23670486 233.00736834 -50.07305298 234.3891152 -44.6796875 235.796875 C-43.72513672 236.05662109 -42.77058594 236.31636719 -41.78710938 236.58398438 C-31.73264026 239.26933948 -22.1826139 239.84761003 -11.8046875 239.859375 C-10.76414215 239.86138412 -10.76414215 239.86138412 -9.70257568 239.86343384 C4.28984038 239.85756301 15.88360288 238.06744487 29.2578125 233.609375 C29.5878125 212.159375 29.9178125 190.709375 30.2578125 168.609375 C23.8228125 170.589375 23.8228125 170.589375 17.2578125 172.609375 C1.50252979 175.32382207 -14.24335931 174.84004118 -27.7421875 165.609375 C-35.97115873 158.24741183 -40.18860523 148.79331732 -40.92864418 137.85287285 C-41.00801193 134.70818031 -41.02389699 131.56927361 -41.0168457 128.42358398 C-41.0245121 126.64135437 -41.0245121 126.64135437 -41.03233337 124.82312012 C-41.04378881 121.58969946 -41.04631341 118.35643916 -41.04377007 115.12300372 C-41.04269423 112.41428899 -41.04759902 109.70559746 -41.0523755 106.99688774 C-41.06343544 100.60410838 -41.06392714 94.2113878 -41.05786133 87.81860352 C-41.05181608 81.24118845 -41.06415445 74.66398699 -41.0854314 68.08660835 C-41.10308232 62.42009293 -41.1090435 56.75364531 -41.10579365 51.08710343 C-41.10398712 47.71108524 -41.10655407 44.33521968 -41.12050819 40.95922661 C-41.13286383 37.19457448 -41.12608611 33.43041589 -41.11450195 29.66577148 C-41.12596756 28.00491264 -41.12596756 28.00491264 -41.13766479 26.3105011 C-41.07379707 16.90530292 -39.14594818 10.36733311 -32.64453125 3.37109375 C-23.62768771 -4.97920694 -10.58575843 -6.05872991 0 0 Z " fill="#D26A21" transform="translate(329.7421875,250.390625)"/>
<path d="M0 0 C-1.27908909 3.83726728 -2.92061625 5.38921813 -6 8 C-8.33899982 8.94915935 -10.51643877 9.46432993 -13 10 C-13.020625 10.5775 -13.04125 11.155 -13.0625 11.75 C-14.305821 14.7339704 -16.17987751 15.29227636 -18.953125 16.73046875 C-23.82338206 19.75114345 -27.84277629 24.26416444 -31 29 C-31.7425 29.4125 -32.485 29.825 -33.25 30.25 C-36.44360005 32.28229094 -38.34982968 34.61996763 -40.66796875 37.57421875 C-41.10753906 38.04472656 -41.54710938 38.51523438 -42 39 C-42.66 39 -43.32 39 -44 39 C-44 39.66 -44 40.32 -44 41 C-44.66 41 -45.32 41 -46 41 C-46.061875 41.556875 -46.12375 42.11375 -46.1875 42.6875 C-47.32954865 45.93794615 -49.55627057 47.61587372 -52 50 C-52.33 50.680625 -52.66 51.36125 -53 52.0625 C-54 54 -54 54 -56.375 55.875 C-59.34162032 58.27654978 -60.93823307 60.8075867 -63 64 C-63.639375 64.598125 -64.27875 65.19625 -64.9375 65.8125 C-67.51238007 68.54343341 -69.01268435 71.520023 -70.765625 74.8203125 C-72.25059081 77.44249896 -74.1211229 79.65140362 -76 82 C-76.77833534 84.18214568 -76.77833534 84.18214568 -77 86 C-77.99 86 -78.98 86 -80 86 C-80.2475 87.010625 -80.495 88.02125 -80.75 89.0625 C-81.53862451 91.86523747 -82.574117 94.18701656 -84.0625 96.6875 C-85.63533209 99.3765355 -86.32532998 101.07642991 -87 104 C-87.99 104.495 -87.99 104.495 -89 105 C-89.68472665 106.88764903 -89.68472665 106.88764903 -90.125 109.0625 C-90.29257813 109.79597656 -90.46015625 110.52945313 -90.6328125 111.28515625 C-90.75398438 111.85105469 -90.87515625 112.41695313 -91 113 C-92.98 113.495 -92.98 113.495 -95 114 C-95.0928125 115.6396875 -95.0928125 115.6396875 -95.1875 117.3125 C-95.75960783 122.13699139 -97.76104535 125.97762639 -99.86328125 130.30859375 C-101.38743373 133.9173259 -101.64733628 137.12069913 -102 141 C-102.99 141.99 -102.99 141.99 -104 143 C-107.28732922 148.42628476 -108.31664027 154.1775251 -109.5625 160.3125 C-109.98035234 162.30861812 -110.39831956 164.3047122 -110.81640625 166.30078125 C-111.01524414 167.26072998 -111.21408203 168.22067871 -111.41894531 169.2097168 C-111.96291318 171.82190534 -112.51490365 174.43180688 -113.08203125 177.0390625 C-113.23260986 177.73338379 -113.38318848 178.42770508 -113.53833008 179.14306641 C-114.13243372 181.53267628 -114.98754715 183.75814013 -116 186 C-116.66 186 -117.32 186 -118 186 C-114.33833422 142.33811183 -92.58766647 97.32444886 -66.35546875 62.7890625 C-65.05797578 61.07652134 -63.77741145 59.35254691 -62.5 57.625 C-56.50572119 49.58500697 -49.96546153 42.20818021 -43 35 C-42.3184082 34.29117676 -41.63681641 33.58235352 -40.93457031 32.85205078 C-31.49492707 23.08049616 -21.9361149 14.06342932 -11 6 C-10.16339844 5.34128906 -9.32679688 4.68257813 -8.46484375 4.00390625 C-7.75457031 3.44574219 -7.04429687 2.88757813 -6.3125 2.3125 C-5.73113281 1.85488281 -5.14976562 1.39726563 -4.55078125 0.92578125 C-3 0 -3 0 0 0 Z " fill="#D56B23" transform="translate(138,71)"/>
<path d="M0 0 C4.87413171 1.4684884 9.02002094 2.73073149 13 6 C14.64797236 6.71162443 16.31165408 7.39031953 18 8 C18 8.66 18 9.32 18 10 C18.99 10.1546875 18.99 10.1546875 20 10.3125 C23.83841009 11.19213564 27.33096691 12.56969896 31 14 C31 14.66 31 15.32 31 16 C31.70543945 16.12455566 32.41087891 16.24911133 33.13769531 16.37744141 C36.13405893 17.02915816 38.90656888 17.93816348 41.796875 18.9609375 C54.53541338 23.39085325 66.64818871 27.11567179 80 29 C82.90170216 29.5116021 85.79451522 30.0664419 88.6875 30.625 C93.11823728 31.46679483 97.54855456 32.27518707 102 33 C102 33.66 102 34.32 102 35 C132.44191186 35.17582361 132.44191186 35.17582361 162.875 34.5625 C164.01598145 34.52326416 165.15696289 34.48402832 166.33251953 34.44360352 C174.23517053 34.13757697 182.11487456 33.60318915 190 33 C190 32.34 190 31.68 190 31 C196.20056386 29.23177837 202.35760826 27.64289487 208.7109375 26.52734375 C211.05774276 26.05471297 211.05774276 26.05471297 213.37890625 25.00390625 C217.44804851 23.44538231 221.63924891 23.11954234 225.94140625 22.5625 C228.72888757 22.04985976 230.53010173 21.29710194 233 20 C233.99 20 234.98 20 236 20 C236 20.66 236 21.32 236 22 C222.47279128 26.79542755 208.96751533 30.7083633 194.875 33.375 C193.62130615 33.61299316 192.3676123 33.85098633 191.07592773 34.09619141 C177.52376274 36.57092682 164.08945663 38.32618973 150.3125 38.75 C149.32345169 38.78086197 149.32345169 38.78086197 148.31442261 38.81234741 C109.9180464 39.93009826 73.07093166 32.7567929 37 20 C36.319375 19.7628125 35.63875 19.525625 34.9375 19.28125 C25.57530202 15.99626825 16.75387623 11.6383163 8 7 C7.3409668 6.65984863 6.68193359 6.31969727 6.00292969 5.96923828 C1.11641295 3.34923886 1.11641295 3.34923886 0 0 Z " fill="#D3621C" transform="translate(162,550)"/>
<path d="M0 0 C0.33 0 0.66 0 1 0 C1 23.76 1 47.52 1 72 C6.22199219 71.97679687 11.44398438 71.95359375 16.82421875 71.9296875 C20.20117707 71.91942715 23.57811524 71.90979657 26.95507812 71.90234375 C32.27486329 71.89054607 37.5945775 71.87684623 42.91430664 71.84912109 C60.23851672 71.7614633 77.53536544 71.7319531 94.83203125 72.8203125 C96.03478195 72.8899118 97.23753265 72.95951111 98.47673035 73.03121948 C99.56698013 73.11131256 100.65722992 73.19140564 101.78051758 73.27392578 C102.72316971 73.3412088 103.66582184 73.40849182 104.63703918 73.47781372 C107.38287283 74.08461035 108.4447743 74.65826429 110 77 C109.59497691 79.09261931 109.1669157 81.1838901 108.61328125 83.2421875 C107.6489514 87.57860071 107.49712166 91.94871187 107.24609375 96.375 C107 99 107 99 106 100 C105.59003181 102.62738741 105.24102856 105.23489006 104.9375 107.875 C104.8444458 108.64424805 104.7513916 109.41349609 104.65551758 110.20605469 C104.15543439 114.61047399 103.96862922 118.81178704 104.1875 123.25 C104.31043301 127.50089393 104.31043301 127.50089393 102.89453125 129.77734375 C101.5 131.1875 101.5 131.1875 99 133 C97.48557291 128.03846646 98.48395686 123.65959044 99.36328125 118.67578125 C99.51532516 117.77433884 99.66736908 116.87289642 99.82402039 115.94413757 C100.31183581 113.06543107 100.81215668 110.18905252 101.3125 107.3125 C101.63815624 105.39661789 101.96303412 103.4806033 102.28710938 101.56445312 C103.47383572 94.59283526 104.65972919 87.62643092 106.05534363 80.69303894 C106.23297839 79.80923144 106.41061316 78.92542395 106.59363079 78.0148344 C106.72773263 77.34993905 106.86183447 76.6850437 107 76 C106.17420866 75.98592149 106.17420866 75.98592149 105.33173466 75.97155857 C91.95392495 75.74315054 78.57622022 75.50929006 65.19860935 75.26950932 C58.72937198 75.15372072 52.26011291 75.0397661 45.79077148 74.92993164 C39.55321734 74.82396608 33.31576364 74.71327611 27.07835197 74.59924126 C24.69282963 74.55647205 22.30727559 74.51543595 19.9216938 74.4761219 C16.59296016 74.42097528 13.2643902 74.35979292 9.93579102 74.29711914 C8.93885727 74.28201294 7.94192352 74.26690674 6.91477966 74.25134277 C6.01309052 74.2331398 5.11140137 74.21493683 4.18238831 74.19618225 C3.3942553 74.18235536 2.6061223 74.16852846 1.79410648 74.15428257 C0 74 0 74 -1 73 C-1.09960079 70.80204434 -1.12799757 68.60084554 -1.12939453 66.40063477 C-1.13114685 65.71119781 -1.13289917 65.02176086 -1.13470459 64.31143188 C-1.13912314 62.02139809 -1.1361848 59.7314409 -1.1328125 57.44140625 C-1.13348562 55.85578903 -1.13445571 54.27017192 -1.13571167 52.68455505 C-1.13718871 49.3563438 -1.13503418 46.02815932 -1.13037109 42.69995117 C-1.12467843 38.42801305 -1.12794983 34.15613781 -1.13394356 29.884202 C-1.13755296 26.60804265 -1.13640875 23.33189825 -1.13381577 20.05573845 C-1.13314731 18.48042735 -1.1339721 16.9051149 -1.13629532 15.32980537 C-1.13882754 13.12942012 -1.13497298 10.92913736 -1.12939453 8.72875977 C-1.12859894 7.47490982 -1.12780334 6.22105988 -1.12698364 4.92921448 C-1 2 -1 2 0 0 Z " fill="#D66E27" transform="translate(290,117)"/>
<path d="M0 0 C2.4375 0.375 2.4375 0.375 5 1 C6.39456729 3.78913458 6.15042786 6.1016487 6.17700195 9.22216797 C6.19625481 11.18462967 6.19625481 11.18462967 6.21589661 13.18673706 C6.22406327 14.62188337 6.23150714 16.05703394 6.23828125 17.4921875 C6.24235678 18.21350986 6.2464323 18.93483223 6.25063133 19.67801285 C6.27149017 23.49513717 6.28579322 27.31222554 6.29516602 31.12939453 C6.30623639 35.07288542 6.3406432 39.01581295 6.38033772 42.95910454 C6.40647455 45.99086562 6.41485513 49.02249178 6.41844749 52.05435562 C6.42332032 53.50803563 6.43495427 54.96170933 6.45348549 56.41527939 C6.47781203 58.44972923 6.47449853 60.48445273 6.4699707 62.51904297 C6.47583694 63.67661102 6.48170319 64.83417908 6.48774719 66.02682495 C5.89550705 69.63696076 4.82512046 70.7581597 2 73 C-1.89735454 75.17793342 -5.83343789 75.37086055 -10.20703125 75.65625 C-13.18010819 75.95492449 -13.18010819 75.95492449 -16.69116211 77.00268555 C-20.74289842 78.02941754 -24.54316147 78.2729266 -28.734375 78.30078125 C-29.80283661 78.30890839 -29.80283661 78.30890839 -30.8928833 78.31719971 C-33.1787822 78.32857853 -35.46410037 78.32236439 -37.75 78.3125 C-38.52746582 78.31200653 -39.30493164 78.31151306 -40.10595703 78.31100464 C-53.10088069 78.28570247 -66.54883776 78.15038741 -79 74 C-79 73.34 -79 72.68 -79 72 C-79.79664063 71.82984375 -80.59328125 71.6596875 -81.4140625 71.484375 C-92.38313562 68.97563322 -92.38313562 68.97563322 -97 65 C-97 64.34 -97 63.68 -97 63 C-93.29029632 63.37097037 -90.80453625 64.10238577 -87.47265625 65.84765625 C-82.49451736 68.39799334 -77.33086548 69.7797402 -71.9375 71.1875 C-70.98294922 71.44724609 -70.02839844 71.70699219 -69.04492188 71.97460938 C-58.99045276 74.65996448 -49.4404264 75.23823503 -39.0625 75.25 C-38.02195465 75.25200912 -38.02195465 75.25200912 -36.96038818 75.25405884 C-22.96797212 75.24818801 -11.37420962 73.45806987 2 69 C2 47.22 2 25.44 2 3 C1.01 3 0.02 3 -1 3 C-0.67 2.01 -0.34 1.02 0 0 Z " fill="#CD6B27" transform="translate(357,415)"/>
<path d="M0 0 C0.33 0 0.66 0 1 0 C1.00054477 0.65192636 1.00108953 1.30385273 1.00165081 1.97553444 C1.01666844 17.89491533 1.0593152 33.81395232 1.13209057 49.73316383 C1.1666306 57.43184145 1.19208157 65.13034206 1.19555664 72.82910156 C1.19861193 79.54538368 1.21931068 86.26134967 1.26052457 92.97750986 C1.28171576 96.52830304 1.29452779 100.07864841 1.28615379 103.62950516 C0.12709153 125.85956245 0.12709153 125.85956245 9.16911316 145.21255493 C9.77330582 145.8024118 10.37749847 146.39226868 11 147 C11 147.66 11 148.32 11 149 C11.66 149 12.32 149 13 149 C13 149.66 13 150.32 13 151 C14.65 151 16.3 151 18 151 C18 151.66 18 152.32 18 153 C19.3921875 153.185625 19.3921875 153.185625 20.8125 153.375 C24 154 24 154 27 156 C40.11397304 160.37132435 57.15905307 157.22995899 70 153 C70 153.66 70 154.32 70 155 C68.00283825 155.65455759 66.00209613 156.2981943 64 156.9375 C62.88625 157.29714844 61.7725 157.65679687 60.625 158.02734375 C45.45104583 162.09880344 28.29465552 161.66716514 14.58203125 153.765625 C6.1037512 147.96807192 1.49083955 139.47980536 -0.59783363 129.61437416 C-1.35745705 124.67626892 -1.26812691 119.7364982 -1.24291992 114.75073242 C-1.24481827 113.55615417 -1.24671661 112.36157593 -1.24867249 111.13079834 C-1.25172503 107.88110309 -1.24591616 104.63157848 -1.23571944 101.38190246 C-1.22688192 97.97118163 -1.22869743 94.56046444 -1.2290802 91.1497345 C-1.2281466 85.42963351 -1.21950067 79.7095859 -1.20581055 73.98950195 C-1.19005068 67.38026696 -1.18481392 60.77109018 -1.1855461 54.16183776 C-1.18622163 47.11106176 -1.17928455 40.06030813 -1.1700995 33.00953889 C-1.16797036 30.98200219 -1.16725864 28.9544691 -1.16686058 26.92693138 C-1.16469763 23.15202274 -1.15595538 19.37718778 -1.14526367 15.60229492 C-1.14571686 14.48067459 -1.14617004 13.35905426 -1.14663696 12.20344543 C-1.14237198 11.17601227 -1.13810699 10.1485791 -1.13371277 9.0900116 C-1.13203692 8.19834384 -1.13036108 7.30667608 -1.12863445 6.38798809 C-1.00664939 4.12344023 -0.63465236 2.17109892 0 0 Z " fill="#D6661A" transform="translate(290,264)"/>
<path d="M0 0 C7.26 0 14.52 0 22 0 C25.34338588 8.91569568 25.34338588 8.91569568 25.5625 12.9375 C25.64371248 15.14169112 25.64371248 15.14169112 26 17 C26.66 17.33 27.32 17.66 28 18 C28.02693575 20.12493141 28.04636628 22.24995912 28.0625 24.375 C28.07410156 25.55835938 28.08570313 26.74171875 28.09765625 27.9609375 C28 31 28 31 27 33 C26.34 33 25.68 33 25 33 C25 50.16 25 67.32 25 85 C24.67 85 24.34 85 24 85 C23.22515081 81.5154012 22.83233773 78.20626602 22.70288086 74.64086914 C22.6429319 73.06620628 22.6429319 73.06620628 22.58177185 71.45973206 C22.54318558 70.32962204 22.5045993 69.19951202 22.46484375 68.03515625 C22.42186661 66.85142929 22.37888947 65.66770233 22.33460999 64.44810486 C22.24441723 61.93398048 22.15629095 59.41978125 22.07006836 56.90551758 C21.9400127 53.13534063 21.80158622 49.36554182 21.66210938 45.59570312 C21.14080176 31.05269564 20.90715139 16.55247273 21 2 C14.4 2.33 7.8 2.66 1 3 C0.8453125 5.289375 0.8453125 5.289375 0.6875 7.625 C-0.11861071 17.46429252 -1.61364196 27.22897986 -3 37 C-3.66 36.67 -4.32 36.34 -5 36 C-5.07497316 32.10139591 -4.94019549 28.75988053 -4 25 C-3.89178564 23.55703024 -3.82354328 22.11067342 -3.7890625 20.6640625 C-3.76070313 19.84679687 -3.73234375 19.02953125 -3.703125 18.1875 C-3.65128637 16.48719304 -3.60694302 14.78664007 -3.5703125 13.0859375 C-3.539375 12.26609375 -3.5084375 11.44625 -3.4765625 10.6015625 C-3.4468335 9.49288818 -3.4468335 9.49288818 -3.41650391 8.36181641 C-3 6 -3 6 0 0 Z " fill="#D66A1F" transform="translate(418,191)"/>
<path d="M0 0 C0.99 0 1.98 0 3 0 C3 0.66 3 1.32 3 2 C3.66 2 4.32 2 5 2 C5.12375 2.94875 5.2475 3.8975 5.375 4.875 C5.71687177 8.08667191 5.71687177 8.08667191 8 10 C8.309375 10.94875 8.61875 11.8975 8.9375 12.875 C9.9607329 15.88450854 11.08617609 17.52797746 13 20 C13.309375 20.825 13.61875 21.65 13.9375 22.5 C15.15471587 25.36403734 16.7049999 26.93449991 19 29 C18.34 29.33 17.68 29.66 17 30 C17.9590625 31.051875 17.9590625 31.051875 18.9375 32.125 C21.16386102 35.22841233 21.65080943 37.24620139 22 41 C22.66 41 23.32 41 24 41 C24 41.99 24 42.98 24 44 C24.66 44 25.32 44 26 44 C26.66 45.65 27.32 47.3 28 49 C28.99 49 29.98 49 31 49 C33.08497385 52.89667442 35.01959101 56.64066827 36.125 60.9375 C36.41375 61.948125 36.7025 62.95875 37 64 C37.99 64.495 37.99 64.495 39 65 C39 65.99 39 66.98 39 68 C39.99 68 40.98 68 42 68 C42 67.34 42 66.68 42 66 C42.66 66 43.32 66 44 66 C44.495 69.96 44.495 69.96 45 74 C45.99 74.33 46.98 74.66 48 75 C48.6875 77.0625 48.6875 77.0625 49 79 C49.66 79 50.32 79 51 79 C52.5078125 80.4609375 52.5078125 80.4609375 54.125 82.375 C54.66382813 83.00148438 55.20265625 83.62796875 55.7578125 84.2734375 C57 86 57 86 57 88 C57.66 88 58.32 88 59 88 C60 89.66666667 61 91.33333333 62 93 C62.66 93 63.32 93 64 93 C65.69140625 94.6796875 65.69140625 94.6796875 67.5625 96.875 C68.18253906 97.59429687 68.80257812 98.31359375 69.44140625 99.0546875 C71 101 71 101 72 103 C70.515 103.495 70.515 103.495 69 104 C67.5 102.625 67.5 102.625 66 101 C66 100.34 66 99.68 66 99 C65.46503906 98.79890625 64.93007812 98.5978125 64.37890625 98.390625 C60.98660686 96.40760598 58.55875903 93.6272095 55.9375 90.75 C55.36604248 90.12738281 54.79458496 89.50476563 54.20581055 88.86328125 C41.19522252 74.51572945 29.85238537 58.65474513 20 42 C19.37738281 40.97132813 18.75476563 39.94265625 18.11328125 38.8828125 C13.70023272 31.41733081 9.82882659 23.7459315 6.0625 15.9375 C5.57740967 14.93734863 5.09231934 13.93719727 4.5925293 12.90673828 C4.14047119 11.95653809 3.68841309 11.00633789 3.22265625 10.02734375 C2.81797119 9.17906006 2.41328613 8.33077637 1.99633789 7.45678711 C0.98928658 4.97358267 0.43585912 2.63843592 0 0 Z " fill="#D56B22" transform="translate(36,407)"/>
<path d="M0 0 C7.7597171 6.06349753 9.53283139 13.70241365 11.1796875 22.96484375 C11.5172935 26.88031059 11.48657221 30.74108638 11.3984375 34.66796875 C11.38582886 35.82975647 11.37322021 36.99154419 11.36022949 38.1885376 C11.32975636 40.88371253 11.2933643 43.57825325 11.24951172 46.27319336 C11.16591565 51.59011747 11.12013256 56.90724687 11.07421875 62.22460938 C10.9705057 73.94639145 10.84525065 85.6678782 10.71612549 97.3894043 C10.6547001 102.99526813 10.59501077 108.60115046 10.53515625 114.20703125 C10.41832367 125.12632038 10.29963058 136.04558837 10.1796875 146.96484375 C9.8496875 146.96484375 9.5196875 146.96484375 9.1796875 146.96484375 C9.17637735 146.36592127 9.17306721 145.76699879 9.16965675 145.14992714 C9.08825461 130.54223752 8.99610652 115.93464262 8.89216042 101.32709694 C8.84214793 94.26284552 8.79570425 87.19860504 8.7578125 80.13427734 C8.72121495 73.31313737 8.67447303 66.49212614 8.62162399 59.67109299 C8.60313291 57.07250502 8.58800558 54.4738908 8.57634354 51.87526321 C8.55939069 48.22742478 8.53033346 44.57986408 8.49853516 40.93212891 C8.49637497 39.86469452 8.49421478 38.79726013 8.49198914 37.69747925 C8.4004728 29.44540526 7.32412399 21.64461931 4.5546875 13.83984375 C4.16410156 12.72222656 4.16410156 12.72222656 3.765625 11.58203125 C3.57226562 11.04835937 3.37890625 10.5146875 3.1796875 9.96484375 C2.1896875 9.96484375 1.1996875 9.96484375 0.1796875 9.96484375 C-1.8203125 7.96484375 -1.8203125 7.96484375 -2.5703125 4.96484375 C-3.51176374 1.73310263 -3.51176374 1.73310263 -6.49609375 0.7890625 C-14.02571265 -1.07785828 -22.23058762 -0.44719809 -29.8203125 0.96484375 C-29.8203125 0.30484375 -29.8203125 -0.35515625 -29.8203125 -1.03515625 C-20.58594715 -3.7712645 -8.75260111 -4.97733754 0 0 Z " fill="#DB712C" transform="translate(203.8203125,237.03515625)"/>
<path d="M0 0 C0.66 0 1.32 0 2 0 C0.91646571 7.70513272 -9.07919538 13.13036485 -14.93530273 17.57421875 C-18.26968993 20.07865619 -21.61936151 22.55827631 -25 25 C-25.76707275 25.5554248 -26.53414551 26.11084961 -27.32446289 26.68310547 C-33.50560545 31.09005957 -39.87629915 35.06044803 -46.4375 38.875 C-47.48010986 39.48142334 -48.52271973 40.08784668 -49.59692383 40.71264648 C-83.17367274 60 -83.17367274 60 -93 60 C-92.3125 58.0625 -92.3125 58.0625 -91 56 C-88.375 55.25 -88.375 55.25 -86 55 C-86 54.01 -86 53.02 -86 52 C-80.555 51.505 -80.555 51.505 -75 51 C-75 50.34 -75 49.68 -75 49 C-71.66666667 47.66666667 -68.33333333 46.33333333 -65 45 C-63.66001953 44.40832031 -63.66001953 44.40832031 -62.29296875 43.8046875 C-61.15794922 43.40636719 -61.15794922 43.40636719 -60 43 C-59.01 43.495 -59.01 43.495 -58 44 C-58 43.34 -58 42.68 -58 42 C-57.195625 41.71125 -56.39125 41.4225 -55.5625 41.125 C-52.8673532 40.26737432 -52.8673532 40.26737432 -52 38 C-51.34 38 -50.68 38 -50 38 C-50 37.34 -50 36.68 -50 36 C-49.38511719 35.74605469 -48.77023437 35.49210938 -48.13671875 35.23046875 C-47.32847656 34.88628906 -46.52023437 34.54210937 -45.6875 34.1875 C-44.88699219 33.85105469 -44.08648437 33.51460937 -43.26171875 33.16796875 C-41.0112207 32.00579446 -39.74611957 30.79462289 -38 29 C-36.32895148 28.3119212 -34.65693008 27.62593403 -32.9765625 26.9609375 C-29.8979931 25.4642417 -27.35296344 23.34983885 -24.69921875 21.20703125 C-23 20 -23 20 -21 20 C-21 19.34 -21 18.68 -21 18 C-20.34 18 -19.68 18 -19 18 C-18.87625 17.38125 -18.7525 16.7625 -18.625 16.125 C-18 14 -18 14 -16 12 C-14.865625 11.525625 -13.73125 11.05125 -12.5625 10.5625 C-9.37901043 9.16623265 -8.26905147 8.37219017 -6 6 C-5.13375 5.690625 -4.2675 5.38125 -3.375 5.0625 C-0.80875315 4.2501999 -0.80875315 4.2501999 -0.1875 1.875 C-0.0946875 0.946875 -0.0946875 0.946875 0 0 Z " fill="#D2631C" transform="translate(492,511)"/>
<path d="M0 0 C0.66 0.33 1.32 0.66 2 1 C1.17757812 1.70382813 0.35515625 2.40765625 -0.4921875 3.1328125 C-11.69233907 12.94621445 -21.91969913 24.72458445 -27 39 C-26.67 39.99 -26.34 40.98 -26 42 C-20.11845668 41.59437632 -16.56079541 39.00915459 -11.875 35.75 C-5.1825253 31.25969122 1.32090004 27.58701386 9 25 C10.051875 24.61908203 10.051875 24.61908203 11.125 24.23046875 C17.15634512 22.3456734 24.51952444 22.43495394 30.328125 25.046875 C30.87984375 25.36140625 31.4315625 25.6759375 32 26 C28.98968256 26.93423645 28.13349732 27.04449911 25 26 C18.9267714 25.63323309 13.00460941 26.11042824 7 27 C7 27.66 7 28.32 7 29 C4.76127767 30.49248155 2.49253994 31.76022396 0.07421875 32.9375 C-2.0238502 34.01221705 -3.96132148 35.21646227 -5.9375 36.5 C-8.19971045 37.93692256 -10.18575223 39.07343693 -12.6875 40.0625 C-15.58201235 41.23595095 -17.61720739 43.00360619 -20 45 C-23.46721329 46.73360665 -27.23852315 45.48361845 -31 45 C-30.67 42.03 -30.34 39.06 -30 36 C-29.34 36 -28.68 36 -28 36 C-27.85304687 35.45472656 -27.70609375 34.90945312 -27.5546875 34.34765625 C-24.93031937 25.52434961 -19.75435759 17.32712412 -13 11 C-12.34 11 -11.68 11 -11 11 C-10.67 10.01 -10.34 9.02 -10 8 C-6.99399962 4.65999958 -4.05953119 1.97490707 0 0 Z " fill="#D36B21" transform="translate(167,209)"/>
<path d="M0 0 C0.33 0 0.66 0 1 0 C1.00808685 0.72218719 1.01617371 1.44437439 1.02450562 2.18844604 C1.10237292 8.9868301 1.18963954 15.78503514 1.28752708 22.58315849 C1.33752173 26.07834766 1.38385113 29.57350614 1.421875 33.06884766 C1.46572544 37.08515707 1.52538959 41.10109487 1.5859375 45.1171875 C1.59748871 46.37554413 1.60903992 47.63390076 1.62094116 48.9303894 C1.64081085 50.09144196 1.66068054 51.25249451 1.68115234 52.44873047 C1.69447601 53.47465302 1.70779968 54.50057556 1.7215271 55.55758667 C1.7636954 58.17866403 1.7636954 58.17866403 4 60 C4.39477539 62.30322266 4.39477539 62.30322266 4.59765625 65.1640625 C4.67693359 66.20433594 4.75621094 67.24460937 4.83789062 68.31640625 C4.91201172 69.40824219 4.98613281 70.50007813 5.0625 71.625 C5.21853977 73.76313174 5.37606234 75.90115584 5.53515625 78.0390625 C5.61008301 79.05645508 5.68500977 80.07384766 5.76220703 81.12207031 C6.06343497 84.7677325 6.50423531 88.37609176 7 92 C7.66 92 8.32 92 9 92 C9.66 95.96 10.32 99.92 11 104 C10.67 103.34 10.34 102.68 10 102 C9.34 102 8.68 102 8 102 C-0.62041205 69.2081366 -4.65992949 34.88823599 -1 1 C-0.67 0.67 -0.34 0.34 0 0 Z " fill="#D1681F" transform="translate(18,276)"/>
<path d="M0 0 C0.33 0 0.66 0 1 0 C1 23.76 1 47.52 1 72 C7.93 72 14.86 72 22 72 C26.18535508 72.05658122 30.36669845 72.12154722 34.55078125 72.21875 C35.58647751 72.24094604 36.62217377 72.26314209 37.68925476 72.28601074 C40.89705359 72.35522817 44.10477311 72.42753373 47.3125 72.5 C49.52929234 72.54838527 51.74608921 72.59656337 53.96289062 72.64453125 C59.3086481 72.76064411 64.6543449 72.8792699 70 73 C70 73.33 70 73.66 70 74 C60.89040835 74.02312545 51.78082674 74.04091612 42.6712122 74.05181217 C38.44168629 74.05704056 34.2121804 74.0641374 29.98266602 74.07543945 C25.90431457 74.08626991 21.82598243 74.09227717 17.74761772 74.09487724 C16.18822361 74.09673121 14.6288306 74.10035127 13.06944466 74.10573006 C10.89270838 74.11294262 8.71605286 74.11399085 6.53930664 74.11352539 C4.67732384 74.11685631 4.67732384 74.11685631 2.77772522 74.12025452 C0 74 0 74 -1 73 C-1.09960079 70.80204434 -1.12799757 68.60084554 -1.12939453 66.40063477 C-1.13114685 65.71119781 -1.13289917 65.02176086 -1.13470459 64.31143188 C-1.13912314 62.02139809 -1.1361848 59.7314409 -1.1328125 57.44140625 C-1.13348562 55.85578903 -1.13445571 54.27017192 -1.13571167 52.68455505 C-1.13718871 49.3563438 -1.13503418 46.02815932 -1.13037109 42.69995117 C-1.12467843 38.42801305 -1.12794983 34.15613781 -1.13394356 29.884202 C-1.13755296 26.60804265 -1.13640875 23.33189825 -1.13381577 20.05573845 C-1.13314731 18.48042735 -1.1339721 16.9051149 -1.13629532 15.32980537 C-1.13882754 13.12942012 -1.13497298 10.92913736 -1.12939453 8.72875977 C-1.12859894 7.47490982 -1.12780334 6.22105988 -1.12698364 4.92921448 C-1 2 -1 2 0 0 Z " fill="#D1661E" transform="translate(290,117)"/>
<path d="M0 0 C0.33 0 0.66 0 1 0 C1.15855469 1.17433594 1.31710938 2.34867187 1.48046875 3.55859375 C5.29819364 30.46567103 14.34642565 56.78871276 36.9375 73.875 C37.68902344 74.40867187 38.44054687 74.94234375 39.21484375 75.4921875 C41 77 41 77 42 80 C39.03 79.01 39.03 79.01 36 78 C36 77.34 36 76.68 36 76 C33.66785852 74.79371992 31.50357861 73.8345262 29 73 C29 72.34 29 71.68 29 71 C28.34 71 27.68 71 27 71 C27 70.34 27 69.68 27 69 C25.515 68.505 25.515 68.505 24 68 C22.97388051 66.34928604 21.97691857 64.68029994 21 63 C20.278125 62.278125 19.55625 61.55625 18.8125 60.8125 C18.214375 60.214375 17.61625 59.61625 17 59 C17 58.34 17 57.68 17 57 C16.34 57 15.68 57 15 57 C14.01 54.03 13.02 51.06 12 48 C11.34 48 10.68 48 10 48 C9.67 45.69 9.34 43.38 9 41 C8.34 41 7.68 41 7 41 C6.67 38.03 6.34 35.06 6 32 C5.34 32 4.68 32 4 32 C-1.18048867 23.27152959 -0.29679402 9.7777142 0 0 Z " fill="#D56C27" transform="translate(216,397)"/>
<path d="M0 0 C0 0.66 0 1.32 0 2 C-8.30912931 3.81951737 -16.61863707 5.5460901 -25 7 C-25 7.66 -25 8.32 -25 9 C-29.29 9.66 -33.58 10.32 -38 11 C-38 11.66 -38 12.32 -38 13 C-38.61746094 13.17015625 -39.23492187 13.3403125 -39.87109375 13.515625 C-45.00210456 14.98385945 -49.78987964 16.71733332 -54.6328125 18.94921875 C-66.01115242 24 -66.01115242 24 -72 24 C-72.33 24.99 -72.66 25.98 -73 27 C-74.65 27.33 -76.3 27.66 -78 28 C-77 25 -77 25 -73.78125 23.203125 C-72.35977474 22.53992806 -70.93217067 21.88977282 -69.5 21.25 C-68.73389404 20.90074463 -67.96778809 20.55148926 -67.1784668 20.19165039 C-64.79199164 19.11283954 -62.39762687 18.05376569 -60 17 C-58.95320068 16.534729 -58.95320068 16.534729 -57.88525391 16.06005859 C-40.24205645 8.27591908 -19.52100892 -0.41534062 0 0 Z " fill="#D46B27" transform="translate(248,24)"/>
<path d="M0 0 C0.66 0.66 1.32 1.32 2 2 C-8.36511368 22.04379599 -22.17041304 48.61476506 -40 63 C-40.99 63 -41.98 63 -43 63 C-42.67 62.01 -42.34 61.02 -42 60 C-41.34 60 -40.68 60 -40 60 C-39.938125 59.46375 -39.87625 58.9275 -39.8125 58.375 C-38.22186535 53.72545257 -34.41495542 50.41495542 -31 47 C-30.484375 46.278125 -29.96875 45.55625 -29.4375 44.8125 C-28.963125 44.214375 -28.48875 43.61625 -28 43 C-27.34 43 -26.68 43 -26 43 C-25.34 40.69 -24.68 38.38 -24 36 C-23.34 36 -22.68 36 -22 36 C-22 35.34 -22 34.68 -22 34 C-21.34 34 -20.68 34 -20 34 C-19.9175 33.2575 -19.835 32.515 -19.75 31.75 C-18.84809192 28.44300369 -17.46486192 27.31547635 -15 25 C-13.76487921 22.86690808 -13.76487921 22.86690808 -13 21 C-12.34 21 -11.68 21 -11 21 C-9.98617037 17.3791799 -9.50102309 13.72188582 -9 10 C-7.68 10.33 -6.36 10.66 -5 11 C-4.9175 10.29875 -4.835 9.5975 -4.75 8.875 C-3.82972275 5.34727053 -2.11873023 2.93888386 0 0 Z " fill="#D36A22" transform="translate(554,431)"/>
<path d="M0 0 C0.33 0 0.66 0 1 0 C1.00410889 0.92635254 1.00821777 1.85270508 1.01245117 2.80712891 C1.03976816 6.31550441 1.08919768 9.82223637 1.15258789 13.33007812 C1.17547971 14.83485498 1.19009436 16.3397855 1.19555664 17.84472656 C1.24143329 28.41752945 1.39093872 41.15414957 9.16870117 49.26025391 C9.77302979 49.83437012 10.3773584 50.40848633 11 51 C11 51.66 11 52.32 11 53 C11.66 53 12.32 53 13 53 C13 53.66 13 54.32 13 55 C14.65 55 16.3 55 18 55 C18 55.66 18 56.32 18 57 C19.3921875 57.185625 19.3921875 57.185625 20.8125 57.375 C24 58 24 58 27 60 C40.11397304 64.37132435 57.15905307 61.22995899 70 57 C70 57.66 70 58.32 70 59 C68.00283825 59.65455759 66.00209613 60.2981943 64 60.9375 C62.88625 61.29714844 61.7725 61.65679687 60.625 62.02734375 C45.45104583 66.09880344 28.29465552 65.66716514 14.58203125 57.765625 C6.27421044 52.08463407 1.43867385 43.60232013 -0.63647461 33.86938477 C-1.43104124 27.59769795 -0.91542651 21.23558573 -0.625 14.9375 C-0.56663687 13.4850687 -0.50933667 12.03259428 -0.453125 10.58007812 C-0.31433302 7.05280408 -0.16117093 3.52633071 0 0 Z " fill="#CF5F15" transform="translate(290,360)"/>
<path d="M0 0 C3.75507824 1.25169275 5.24058521 3.17641277 8 6 C11.4322305 9.17866202 14.63018221 11.30062642 19 13 C19.99 14.485 19.99 14.485 21 16 C23.05003955 17.19232613 23.05003955 17.19232613 25 18 C25 18.99 25 19.98 25 21 C25.70125 21.2475 26.4025 21.495 27.125 21.75 C30 23 30 23 33.0625 25.0625 C35.73282593 27.06599899 35.73282593 27.06599899 38.125 27.5 C40.8258633 28.22023021 42.03336797 30.03336797 44 32 C46.28167048 33.45376413 48.61497119 34.71575372 51 36 C51 36.66 51 37.32 51 38 C45.78691878 36.74303879 41.71235215 34.88143674 37.25 31.875 C36.64510742 31.47611572 36.04021484 31.07723145 35.41699219 30.66625977 C24.38867337 23.3358251 13.93927692 15.28931168 3.875 6.6875 C3.12992187 6.05199219 2.38484375 5.41648437 1.6171875 4.76171875 C0 3 0 3 0 0 Z " fill="#D26A22" transform="translate(109,511)"/>
<path d="M0 0 C2.85827475 0.06273418 5.71671391 0.10549339 8.5753479 0.14815807 C11.3447291 0.19122317 14.11385141 0.2441073 16.88299561 0.30025673 C18.83056913 0.33871822 20.77826302 0.37092212 22.72595215 0.40299988 C23.90238281 0.43255264 25.07881348 0.46210541 26.29089355 0.49255371 C27.83921875 0.52611214 27.83921875 0.52611214 29.41882324 0.56034851 C32.119309 0.85904091 33.80467756 1.47655706 36.11901855 2.85900879 C35.46185852 2.85456757 34.80469849 2.85012634 34.12762451 2.84555054 C27.18239556 2.80071798 20.2372088 2.77089864 13.29187012 2.74914551 C10.712426 2.73919246 8.13299285 2.7256252 5.55358887 2.70812988 C-13.9536296 2.57759716 -13.9536296 2.57759716 -33.37969971 4.15390015 C-38.90394461 4.84379219 -44.31554639 4.96236713 -49.88098145 4.85900879 C-49.88098145 4.19900879 -49.88098145 3.53900879 -49.88098145 2.85900879 C-33.26076076 -0.53070719 -16.86338625 -0.40041364 0 0 Z " fill="#D96C25" transform="translate(299.8809814453125,19.1409912109375)"/>
<path d="M0 0 C2.4375 0.375 2.4375 0.375 5 1 C6.40607756 3.81215512 6.11950486 6.1404422 6.11352539 9.28564453 C6.11367142 9.92967224 6.11381744 10.57369995 6.1139679 11.23724365 C6.1132704 13.36913402 6.10548566 15.50093737 6.09765625 17.6328125 C6.09579149 19.10968986 6.09436786 20.58656784 6.09336853 22.06344604 C6.08954792 25.95312199 6.07972152 29.84276067 6.06866455 33.73242188 C6.05844064 37.70051571 6.05386881 41.66861555 6.04882812 45.63671875 C6.03809885 53.42449616 6.02102789 61.21224286 6 69 C5.01 69.495 5.01 69.495 4 70 C4 65.71 4 61.42 4 57 C3.67 57 3.34 57 3 57 C2.67 39.18 2.34 21.36 2 3 C1.01 3 0.02 3 -1 3 C-0.67 2.01 -0.34 1.02 0 0 Z " fill="#D7702A" transform="translate(357,415)"/>
<path d="M0 0 C0.99 0 1.98 0 3 0 C4.10667933 3.32003798 4.13364775 5.80642639 4.14526367 9.30395508 C4.15164352 10.60573196 4.15802338 11.90750885 4.16459656 13.24873352 C4.16612553 14.67233239 4.16723933 16.09593175 4.16796875 17.51953125 C4.17118276 18.98060641 4.17454695 20.44168125 4.17805481 21.90275574 C4.1840436 24.96683498 4.18589503 28.03088602 4.18530273 31.0949707 C4.18520127 35.01227343 4.19883841 38.92939426 4.21607494 42.84665394 C4.22722123 45.86562421 4.22922112 48.88455092 4.22869301 51.90353966 C4.22986974 53.34716098 4.23427425 54.79078355 4.24202538 56.23438454 C4.25187534 58.25885286 4.2476701 60.28337462 4.24291992 62.30786133 C4.24434494 63.45797195 4.24576996 64.60808258 4.24723816 65.79304504 C3.98396546 69.20798593 3.38175612 71.86638823 2 75 C-1.1171875 76.49609375 -1.1171875 76.49609375 -4.875 77.4375 C-6.10992187 77.76621094 -7.34484375 78.09492188 -8.6171875 78.43359375 C-11.63447943 78.93879852 -13.20063184 79.07613902 -16 78 C-13.18738909 76.47224089 -10.63234395 75.57576872 -7.5 74.9375 C-4.648594 74.34671211 -1.82302585 73.71427294 1 73 C1.83108942 64.56857427 2.15975346 56.22379352 2.16796875 47.75390625 C2.17129715 46.53976547 2.17462555 45.32562469 2.17805481 44.07469177 C2.1830812 41.53099951 2.18546448 38.98730074 2.18530273 36.44360352 C2.18750771 32.54888267 2.20575906 28.65443721 2.22460938 24.75976562 C2.2275405 22.2786468 2.22952717 19.79752663 2.23046875 17.31640625 C2.23765427 16.15492569 2.24483978 14.99344513 2.25224304 13.79676819 C2.24916641 12.71471603 2.24608978 11.63266388 2.24291992 10.51782227 C2.24434494 9.5702858 2.24576996 8.62274933 2.24723816 7.64649963 C1.97926486 4.77804587 1.19231926 2.60922484 0 0 Z " fill="#E2732B" transform="translate(210,115)"/>
<path d="M0 0 C0.33 0 0.66 0 1 0 C1.33 3.3 1.66 6.6 2 10 C12.89 9.67 23.78 9.34 35 9 C35 9.99 35 10.98 35 12 C30.21321897 12.19239902 25.42619673 12.37109864 20.63842773 12.53710938 C19.00970751 12.59551552 17.38111708 12.65766607 15.75268555 12.72363281 C13.41218701 12.8177949 11.07155233 12.8984892 8.73046875 12.9765625 C8.00224411 13.00875885 7.27401947 13.0409552 6.52372742 13.0741272 C2.74726048 13.18607509 1.23492334 13.15661556 -2 11 C-2.4671306 6.79582458 -1.78923164 3.80211723 0 0 Z " fill="#D56A24" transform="translate(406,265)"/>
<path d="M0 0 C0.33 0 0.66 0 1 0 C1.15855469 1.17433594 1.31710938 2.34867187 1.48046875 3.55859375 C3.33347996 16.59648428 5.82710976 29.40107376 11.375 41.4375 C11.91125 42.613125 12.4475 43.78875 13 45 C12.67 45.66 12.34 46.32 12 47 C11.01 46.67 10.02 46.34 9 46 C9 44.35 9 42.7 9 41 C8.34 41 7.68 41 7 41 C6.67 38.03 6.34 35.06 6 32 C5.34 32 4.68 32 4 32 C-1.18048867 23.27152959 -0.29679402 9.7777142 0 0 Z " fill="#D56619" transform="translate(216,397)"/>
<path d="M0 0 C-3.78243785 4.06261843 -7.65007007 6.47663909 -12.75 8.5625 C-16.07594875 9.6209936 -16.07594875 9.6209936 -17 12 C-18.32 12 -19.64 12 -21 12 C-21 12.66 -21 13.32 -21 14 C-26.625 17 -26.625 17 -30 17 C-25.86726416 11.37981487 -20.94248856 8.59529048 -15 5.125 C-14.00226563 4.51914062 -13.00453125 3.91328125 -11.9765625 3.2890625 C-10.53410156 2.43828125 -10.53410156 2.43828125 -9.0625 1.5703125 C-8.18722656 1.05227051 -7.31195313 0.53422852 -6.41015625 0.00048828 C-3.7196351 -1.11638324 -2.66644892 -1.04631827 0 0 Z " fill="#D56C23" transform="translate(169,53)"/>
<path d="M0 0 C1.14855469 0.14566406 2.29710937 0.29132812 3.48046875 0.44140625 C6.37682886 0.80448818 9.27427215 1.14565716 12.17578125 1.46484375 C14.24414062 1.70117188 14.24414062 1.70117188 16.3125 1.9375 C17.01439453 2.01162109 17.71628906 2.08574219 18.43945312 2.16210938 C21.9981801 2.57938623 23.9628331 2.97522207 27 5 C29.40257877 5.34891222 29.40257877 5.34891222 32.0625 5.4375 C36.91159955 5.78981238 41.10522892 6.79075932 45.70703125 8.3125 C48.23785953 9.13972808 48.23785953 9.13972808 51.9375 9.5 C55.26210541 10.04279272 55.91607977 10.51914258 58 13 C60.09989652 14.17574711 60.09989652 14.17574711 62 15 C59.36 15 56.72 15 54 15 C54 14.34 54 13.68 54 13 C52.85660156 12.72285156 51.71320313 12.44570313 50.53515625 12.16015625 C49.04422535 11.79445622 47.55334239 11.42856071 46.0625 11.0625 C44.93038086 10.78889648 44.93038086 10.78889648 43.77539062 10.50976562 C38.11328125 9.11328125 38.11328125 9.11328125 37 8 C33.4520159 7.55131763 29.90522861 7.17929632 26.34570312 6.83789062 C22.40705461 6.42133536 19.50884697 5.90779526 16 4 C14.01014051 3.61067967 12.00800456 3.28112064 10 3 C6.25536207 2.47575069 3.28998808 1.89807005 0 0 Z " fill="#DE7128" transform="translate(336,22)"/>
<path d="M0 0 C0.66 1.32 1.32 2.64 2 4 C2.66 4.33 3.32 4.66 4 5 C4.02693575 7.12493141 4.04636628 9.24995912 4.0625 11.375 C4.07410156 12.55835938 4.08570313 13.74171875 4.09765625 14.9609375 C4 18 4 18 3 20 C2.34 20 1.68 20 1 20 C1 30.56 1 41.12 1 52 C0.67 52 0.34 52 0 52 C0 34.84 0 17.68 0 0 Z " fill="#E17223" transform="translate(442,204)"/>
<path d="M0 0 C0.66 0.33 1.32 0.66 2 1 C1.91567792 10.33596604 1.82082653 19.67174803 1.71247292 29.00746632 C1.66249388 33.34226585 1.61616405 37.67704083 1.578125 42.01196289 C1.54129239 46.19418967 1.49493811 50.37621175 1.44193649 54.55826378 C1.42338174 56.15504051 1.40827777 57.75186114 1.39665604 59.34870338 C1.37981187 61.58269914 1.35078206 63.816225 1.31884766 66.05004883 C1.30552399 67.32245926 1.29220032 68.59486969 1.2784729 69.90583801 C1 73 1 73 -1 76 C-1.02312446 66.23849012 -1.04091561 56.4769867 -1.05181217 46.71545506 C-1.05704078 42.18325906 -1.06413801 37.65108173 -1.07543945 33.11889648 C-1.08626914 28.7487717 -1.09227701 24.37866492 -1.09487724 20.00852776 C-1.09673135 18.33749037 -1.10035168 16.66645403 -1.10573006 14.99542427 C-1.11294159 12.66302449 -1.1139909 10.33070007 -1.11352539 7.99829102 C-1.11712067 7.3005809 -1.12071594 6.60287079 -1.12442017 5.88401794 C-1.11405216 1.11405216 -1.11405216 1.11405216 0 0 Z " fill="#C86E34" transform="translate(214,114)"/>
<path d="M0 0 C-3.01031744 0.93423645 -3.86650268 1.04449911 -7 0 C-13.0732286 -0.36676691 -18.99539059 0.11042824 -25 1 C-25 1.66 -25 2.32 -25 3 C-28.45730521 5.44045073 -31.96678237 6.78065514 -36 8 C-36.66 7.34 -37.32 6.68 -38 6 C-26.4403336 -0.2337468 -12.76794449 -7.19863228 0 0 Z " fill="#D0641F" transform="translate(199,235)"/>
<path d="M0 0 C0.33 0 0.66 0 1 0 C1 2.64 1 5.28 1 8 C1.66 8 2.32 8 3 8 C3.144375 9.134375 3.28875 10.26875 3.4375 11.4375 C3.61171478 14.80777201 3.61171478 14.80777201 5 16 C5.26221823 17.999414 5.52067487 19.99957422 5.7421875 22.00390625 C5.96007424 24.06278461 5.96007424 24.06278461 6.625 26.25 C7.09171747 28.42801487 6.67414198 29.9026694 6 32 C5.34 32 4.68 32 4 32 C2.80452886 27.81585102 1.86710291 24.17318563 2 19.8125 C2.2449387 16.1573234 2.2449387 16.1573234 1.0078125 13.625 C-0.14298415 10.62757617 -0.20201764 8.38373194 -0.125 5.1875 C-0.10695313 4.21167969 -0.08890625 3.23585937 -0.0703125 2.23046875 C-0.04710937 1.49441406 -0.02390625 0.75835937 0 0 Z " fill="#E57122" transform="translate(577,240)"/>
<path d="M0 0 C0.33 0 0.66 0 1 0 C1.5223107 8.260247 0.3837032 16.16876824 -0.93286133 24.29760742 C-1.81950286 29.94355946 -2.13914708 35.2833743 -2 41 C-4.52775351 37.20836973 -4.22443035 34.19125969 -4.125 29.8125 C-4.11597656 29.06291016 -4.10695313 28.31332031 -4.09765625 27.54101562 C-4.07412578 25.69387346 -4.03825561 23.84689588 -4 22 C-3.34 22 -2.68 22 -2 22 C-2.01160156 21.14535156 -2.02320313 20.29070312 -2.03515625 19.41015625 C-2.04417969 18.30542969 -2.05320312 17.20070313 -2.0625 16.0625 C-2.07410156 14.96035156 -2.08570313 13.85820312 -2.09765625 12.72265625 C-2 10 -2 10 -1 9 C-0.76807135 7.48530552 -0.58784762 5.96245438 -0.4375 4.4375 C-0.35371094 3.61121094 -0.26992188 2.78492188 -0.18359375 1.93359375 C-0.12300781 1.29550781 -0.06242188 0.65742188 0 0 Z " fill="#DD7126" transform="translate(583,322)"/>
<path d="M0 0 C2.10353495 -0.0810206 4.20795952 -0.13919907 6.3125 -0.1875 C7.48425781 -0.22230469 8.65601563 -0.25710937 9.86328125 -0.29296875 C13 0 13 0 14.72802734 1.24462891 C16 3 16 3 16.00512695 5.05297852 C15.83456787 5.82053467 15.66400879 6.58809082 15.48828125 7.37890625 C15.30716797 8.21744141 15.12605469 9.05597656 14.93945312 9.91992188 C14.73255859 10.79197266 14.52566406 11.66402344 14.3125 12.5625 C14.12494141 13.43841797 13.93738281 14.31433594 13.74414062 15.21679688 C12.28941127 21.71058873 12.28941127 21.71058873 10 24 C9.83664415 18.76580643 10.39447963 14.13693808 11.5 9.0625 C11.71462891 8.03672852 11.71462891 8.03672852 11.93359375 6.99023438 C12.28283771 5.32550486 12.64052946 3.66255125 13 2 C8.71 1.67 4.42 1.34 0 1 C0 0.67 0 0.34 0 0 Z " fill="#CF631A" transform="translate(384,191)"/>
<path d="M0 0 C5.60116281 1.35785765 8.85394561 5.42462707 12 10 C13.59665602 13.52384785 15 17.0957007 15 21 C14.34 21 13.68 21 13 21 C12.16235732 19.04350603 11.33000941 17.08474444 10.5 15.125 C10.0359375 14.03445313 9.571875 12.94390625 9.09375 11.8203125 C8 9 8 9 8 7 C7.236875 6.95875 6.47375 6.9175 5.6875 6.875 C3 6 3 6 1.1875 2.9375 C0.795625 1.968125 0.40375 0.99875 0 0 Z " fill="#D55F16" transform="translate(327,250)"/>
<path d="M0 0 C2 2 2 2 2.046875 4.28515625 C0.29133858 20.70866142 0.29133858 20.70866142 -3 24 C-3.15490223 18.26861756 -2.65244885 13.10650794 -1.5 7.5 C-1.35691406 6.77296875 -1.21382813 6.0459375 -1.06640625 5.296875 C-0.71766302 3.52990929 -0.35980277 1.76474691 0 0 Z " fill="#CE6A24" transform="translate(410,240)"/>
<path d="M0 0 C2.40685275 3.67735535 1.9772828 6.26464069 1.3203125 10.515625 C1.13339844 11.76601562 0.94648438 13.01640625 0.75390625 14.3046875 C0.44259766 16.25761719 0.44259766 16.25761719 0.125 18.25 C-0.07798215 19.58055284 -0.27981808 20.91128108 -0.48046875 22.2421875 C-0.9757199 25.49669508 -1.4826429 28.74894572 -2 32 C-2.66 31.67 -3.32 31.34 -4 31 C-4.30473766 24.36243278 -3.14592515 18.08575633 -2 11.5625 C-1.71382813 9.8928418 -1.71382813 9.8928418 -1.421875 8.18945312 C-0.95307635 5.45870097 -0.47898096 2.72898129 0 0 Z " fill="#D46619" transform="translate(417,196)"/>
<path d="M0 0 C0.66 0.33 1.32 0.66 2 1 C-17.08390023 17 -17.08390023 17 -22 17 C-18.45061586 13.15483385 -14.38711992 9.84877917 -10 7 C-9.34 7 -8.68 7 -8 7 C-8 6.34 -8 5.68 -8 5 C-6.3203125 3.67578125 -6.3203125 3.67578125 -4.125 2.3125 C-3.40570313 1.85488281 -2.68640625 1.39726563 -1.9453125 0.92578125 C-1.30335938 0.62027344 -0.66140625 0.31476562 0 0 Z " fill="#CD6218" transform="translate(479,524)"/>
<path d="M0 0 C0.33 0 0.66 0 1 0 C1.054138 2.24973447 1.09285491 4.49984383 1.125 6.75 C1.14820313 8.00296875 1.17140625 9.2559375 1.1953125 10.546875 C1.01537302 13.72820492 0.68998582 15.36521896 -1 18 C-1.66 18 -2.32 18 -3 18 C-2.88602456 15.56152549 -2.75929026 13.12486826 -2.625 10.6875 C-2.5940625 9.99720703 -2.563125 9.30691406 -2.53125 8.59570312 C-2.31875081 4.93009211 -2.08066139 3.12099208 0 0 Z " fill="#D66D24" transform="translate(21,258)"/>
<path d="M0 0 C0.66 0.33 1.32 0.66 2 1 C2 1.66 2 2.32 2 3 C-1.52392689 5.62245722 -4.92243533 7.4317059 -9 9 C-12.57617509 10.91892322 -15.23523418 13.03043671 -18 16 C-18 15.01 -18 14.02 -18 13 C-17.34 13 -16.68 13 -16 13 C-15.34 11.68 -14.68 10.36 -14 9 C-13.34 9 -12.68 9 -12 9 C-12 8.34 -12 7.68 -12 7 C-11.46890625 6.74605469 -10.9378125 6.49210938 -10.390625 6.23046875 C-6.6675828 4.41650476 -3.20237785 2.6686482 0 0 Z " fill="#D56D25" transform="translate(175,202)"/>
<path d="M0 0 C0 3.73982958 -1.00300839 4.63106632 -3.3125 7.5 C-3.92738281 8.2734375 -4.54226563 9.046875 -5.17578125 9.84375 C-8.41980662 13.67822967 -8.41980662 13.67822967 -10 15 C-10.99 15 -11.98 15 -13 15 C-12.67 14.01 -12.34 13.02 -12 12 C-11.34 12 -10.68 12 -10 12 C-9.938125 11.46375 -9.87625 10.9275 -9.8125 10.375 C-8.36533581 6.14482776 -5.51221604 2.89915549 -1.6875 0.625 C-1.130625 0.41875 -0.57375 0.2125 0 0 Z " fill="#D6651B" transform="translate(524,479)"/>
<path d="M0 0 C2.1875 0.3125 2.1875 0.3125 4 1 C1.63474901 3.5739496 -0.90234322 5.35782523 -3.875 7.1875 C-4.71804688 7.71730469 -5.56109375 8.24710938 -6.4296875 8.79296875 C-9.20338778 10.09551189 -10.97626676 10.24384946 -14 10 C-13.34 9.67 -12.68 9.34 -12 9 C-12 8.34 -12 7.68 -12 7 C-11.38511719 6.74605469 -10.77023437 6.49210938 -10.13671875 6.23046875 C-9.32847656 5.88628906 -8.52023437 5.54210937 -7.6875 5.1875 C-6.88699219 4.85105469 -6.08648437 4.51460937 -5.26171875 4.16796875 C-2.95312695 3.12086678 -2.95312695 3.12086678 -1.34375 1.34375 C-0.9003125 0.9003125 -0.456875 0.456875 0 0 Z " fill="#D46A27" transform="translate(454,540)"/>
<path d="M0 0 C0.71220703 -0.01224609 1.42441406 -0.02449219 2.15820312 -0.03710938 C6.2892489 -0.04857389 9.47517002 0.34227508 13.1875 2.1875 C11.1875 3.1875 11.1875 3.1875 8.6875 2.75 C0.77363044 1.46507453 0.77363044 1.46507453 -6.8125 3.1875 C-6.4825 3.8475 -6.1525 4.5075 -5.8125 5.1875 C-8.4525 5.5175 -11.0925 5.8475 -13.8125 6.1875 C-9.37632373 0.42047085 -7.09000493 0.00631345 0 0 Z " fill="#DB7026" transform="translate(314.8125,248.8125)"/>
<path d="M0 0 C0.66 0 1.32 0 2 0 C3.83738684 6.99509086 4.24911312 13.34961844 4.125 20.5625 C4.11597656 21.57119141 4.10695312 22.57988281 4.09765625 23.61914062 C4.07433356 26.07968457 4.04160763 28.53970896 4 31 C3.67 31 3.34 31 3 31 C2.67 23.08 2.34 15.16 2 7 C1.34 7 0.68 7 0 7 C0 4.69 0 2.38 0 0 Z " fill="#D2661D" transform="translate(211,251)"/>
<path d="M0 0 C2 3 2 3 2 6 C4.31 6.33 6.62 6.66 9 7 C9 7.33 9 7.66 9 8 C13.29 8.33 17.58 8.66 22 9 C22 9.33 22 9.66 22 10 C19.4580411 10.05434116 16.91726318 10.0938339 14.375 10.125 C13.66214844 10.14175781 12.94929688 10.15851563 12.21484375 10.17578125 C7.7387836 10.21684602 4.22050722 9.69086567 0 8 C0 5.36 0 2.72 0 0 Z " fill="#DD7429" transform="translate(338,265)"/>
<path d="M0 0 C0.33 0 0.66 0 1 0 C0.7834375 1.794375 0.7834375 1.794375 0.5625 3.625 C-0.05564814 9.02521086 -0.34049239 14.43633152 -0.62109375 19.86328125 C-0.9788059 22.82454779 -1.61035856 24.43234294 -3 27 C-2.89051894 22.8744331 -2.75979775 18.74981122 -2.625 14.625 C-2.5940625 13.449375 -2.563125 12.27375 -2.53125 11.0625 C-2.49257813 9.94101563 -2.45390625 8.81953125 -2.4140625 7.6640625 C-2.3826416 6.62717285 -2.3512207 5.5902832 -2.31884766 4.52197266 C-2 2 -2 2 0 0 Z " fill="#DC6F28" transform="translate(414,211)"/>
<path d="M0 0 C-2 3 -2 3 -4.6796875 3.80078125 C-5.73414063 3.96964844 -6.78859375 4.13851562 -7.875 4.3125 C-9.44894531 4.58513672 -9.44894531 4.58513672 -11.0546875 4.86328125 C-14.12152569 5.00564111 -15.45856612 4.63904069 -18 3 C-11.88595404 1.14256832 -6.41481258 -0.42765417 0 0 Z " fill="#D46E2A" transform="translate(370,578)"/>
<path d="M0 0 C1 2 1 2 0.3984375 4.06640625 C-2.01859062 9.96137177 -4.76476185 15.51070248 -8 21 C-9 19 -9 19 -8.39501953 17.13647461 C-8.06099121 16.39921143 -7.72696289 15.66194824 -7.3828125 14.90234375 C-6.84333984 13.70061523 -6.84333984 13.70061523 -6.29296875 12.47460938 C-5.90753906 11.63736328 -5.52210937 10.80011719 -5.125 9.9375 C-4.74730469 9.09638672 -4.36960937 8.25527344 -3.98046875 7.38867188 C-1.15954068 1.15954068 -1.15954068 1.15954068 0 0 Z " fill="#D3671F" transform="translate(46,176)"/>
<path d="M0 0 C0.82951172 0.42345703 0.82951172 0.42345703 1.67578125 0.85546875 C3.28025093 1.64556895 4.90463335 2.39603764 6.54296875 3.11328125 C7.85201172 3.70689453 7.85201172 3.70689453 9.1875 4.3125 C10.06792969 4.70050781 10.94835937 5.08851562 11.85546875 5.48828125 C14 7 14 7 14.80078125 9.66796875 C14.89939453 10.82232422 14.89939453 10.82232422 15 12 C14.48050781 11.60167969 13.96101563 11.20335938 13.42578125 10.79296875 C10.38467144 8.4826247 7.42239453 6.24792723 4.125 4.3125 C2 3 2 3 0 0 Z " fill="#D06B22" transform="translate(457,66)"/>
<path d="M0 0 C0 0.66 0 1.32 0 2 C-2.43572059 2.83887056 -4.87333217 3.67126529 -7.3125 4.5 C-8.34793945 4.85771484 -8.34793945 4.85771484 -9.40429688 5.22265625 C-12.38931489 6.23208263 -14.82658914 7 -18 7 C-18 6.34 -18 5.68 -18 5 C-17.08476562 4.72285156 -16.16953125 4.44570313 -15.2265625 4.16015625 C-14.03804688 3.79792969 -12.84953125 3.43570313 -11.625 3.0625 C-10.44164062 2.70285156 -9.25828125 2.34320312 -8.0390625 1.97265625 C-1.87550201 0 -1.87550201 0 0 0 Z " fill="#CD601C" transform="translate(398,570)"/>
<path d="M0 0 C-1.65 0.33 -3.3 0.66 -5 1 C-5 1.99 -5 2.98 -5 4 C-5.86625 4.144375 -6.7325 4.28875 -7.625 4.4375 C-9.295625 4.7159375 -9.295625 4.7159375 -11 5 C-13 5.33333333 -15 5.66666667 -17 6 C-17 5.01 -17 4.02 -17 3 C-11.555 2.505 -11.555 2.505 -6 2 C-6 1.34 -6 0.68 -6 0 C-3.50907189 -1.24546405 -2.58919267 -0.7767578 0 0 Z " fill="#DA7029" transform="translate(423,560)"/>
<path d="M0 0 C0.66 0 1.32 0 2 0 C2.268125 0.680625 2.53625 1.36125 2.8125 2.0625 C4.16053306 5.39710809 5.57536298 8.69743237 7 12 C6.34 12 5.68 12 5 12 C4.67 12.66 4.34 13.32 4 14 C3.32739649 12.23141309 2.66211605 10.46003984 2 8.6875 C1.62875 7.70136719 1.2575 6.71523438 0.875 5.69921875 C0 3 0 3 0 0 Z " fill="#DC7127" transform="translate(31,388)"/>
<path d="M0 0 C0.33 0.99 0.66 1.98 1 3 C0.67 3.66 0.34 4.32 0 5 C-0.165 5.825 -0.33 6.65 -0.5 7.5 C-1 10 -1 10 -2 12 C-4.5625 12.625 -4.5625 12.625 -7 13 C-5.54331217 10.03216871 -3.98767914 7.13584687 -2.375 4.25 C-1.92898437 3.45078125 -1.48296875 2.6515625 -1.0234375 1.828125 C-0.68570313 1.22484375 -0.34796875 0.6215625 0 0 Z " fill="#E37020" transform="translate(70,139)"/>
<path d="M0 0 C2.00691734 1.73324679 2.97381642 2.93192269 3.9375 5.4375 C5.14572382 8.35145157 6.67487525 9.90738772 9 12 C8.01 12.495 8.01 12.495 7 13 C6.67 13.66 6.34 14.32 6 15 C5.566875 14.113125 5.13375 13.22625 4.6875 12.3125 C3.09896207 9.05775681 3.09896207 9.05775681 1.3125 6.375 C0 4 0 4 0 0 Z " fill="#DE7127" transform="translate(46,424)"/>
<path d="M0 0 C3.77356642 3.3763489 6.013719 5.95900824 7 11 C6.01 12.485 6.01 12.485 5 14 C4.34 11.36 3.68 8.72 3 6 C2.34 6 1.68 6 1 6 C0.67 4.02 0.34 2.04 0 0 Z " fill="#D46F2C" transform="translate(555,177)"/>
<path d="M0 0 C6.31631828 0.40316925 10.64993984 2.71232131 16 6 C16 6.66 16 7.32 16 8 C15.34 8 14.68 8 14 8 C14 7.34 14 6.68 14 6 C12.576875 5.814375 12.576875 5.814375 11.125 5.625 C8 5 8 5 6 3 C4.01643517 2.28591666 2.01684563 1.61382258 0 1 C0 0.67 0 0.34 0 0 Z " fill="#CA6722" transform="translate(417,44)"/>
<path d="M0 0 C0.66 0.33 1.32 0.66 2 1 C2.5625 2.8125 2.5625 2.8125 3 5 C3.185625 5.7425 3.37125 6.485 3.5625 7.25 C3.706875 7.8275 3.85125 8.405 4 9 C2.68 9 1.36 9 0 9 C-2.5654594 6.4345406 -2.54046087 4.52313332 -3 1 C-2.34 1 -1.68 1 -1 1 C-0.67 0.67 -0.34 0.34 0 0 Z " fill="#E57225" transform="translate(204,238)"/>
<path d="M0 0 C1 2 1 2 0.546875 3.953125 C-1.02464423 8.48279807 -2.71944321 12.76468024 -5 17 C-6.60031344 13.79937313 -5.03173691 11.27728194 -4 8 C-3.34 8 -2.68 8 -2 8 C-2 5.69 -2 3.38 -2 1 C-1.34 0.67 -0.68 0.34 0 0 Z " fill="#E57124" transform="translate(566,400)"/>
<path d="M0 0 C2 0 2 0 3.69140625 1.6796875 C4.30886719 2.40414063 4.92632812 3.12859375 5.5625 3.875 C6.18253906 4.59429687 6.80257812 5.31359375 7.44140625 6.0546875 C9 8 9 8 10 10 C9.01 10.33 8.02 10.66 7 11 C3.54872227 7.87741538 1.46763996 4.40291987 0 0 Z " fill="#C86D30" transform="translate(98,500)"/>
<path d="M0 0 C4.56846667 3.52960987 7.86175 6.46570589 10 12 C10 12.66 10 13.32 10 14 C9.34 14 8.68 14 8 14 C6.5625 12.20703125 6.5625 12.20703125 5 9.8125 C4.484375 9.03519531 3.96875 8.25789063 3.4375 7.45703125 C2.01759573 5.0300753 0.97310029 2.63392049 0 0 Z " fill="#D26014" transform="translate(64,460)"/>
<path d="M0 0 C0.66 0 1.32 0 2 0 C2.508783 1.55966218 3.00663469 3.12289241 3.5 4.6875 C3.7784375 5.55761719 4.056875 6.42773438 4.34375 7.32421875 C4.99850805 9.99391677 5.11831495 12.26396684 5 15 C3.25050228 12.37575342 2.34610019 10.44272784 1.375 7.5 C0.98441406 6.33984375 0.98441406 6.33984375 0.5859375 5.15625 C0 3 0 3 0 0 Z " fill="#D06117" transform="translate(28,383)"/>
<path d="M0 0 C0.33 0 0.66 0 1 0 C1.144375 1.2375 1.28875 2.475 1.4375 3.75 C1.71108495 6.00211962 2.01702544 8.06129157 2.625 10.25 C3.09171747 12.42801487 2.67414198 13.9026694 2 16 C1.34 16 0.68 16 0 16 C0 10.72 0 5.44 0 0 Z " fill="#D9702D" transform="translate(581,256)"/>
<path d="M0 0 C0 3 0 3 -1 6 C-4.44444444 9 -4.44444444 9 -7 9 C-6.43307299 5.71182333 -5.5440846 4.15268697 -3 2 C-2.01 1.34 -1.02 0.68 0 0 Z " fill="#D06F30" transform="translate(85,119)"/>
<path d="M0 0 C0.66 0 1.32 0 2 0 C2.66 3.96 3.32 7.92 4 12 C3.67 11.34 3.34 10.68 3 10 C2.34 10 1.68 10 1 10 C-0.1577506 6.52674819 -0.06866652 3.63932552 0 0 Z " fill="#D4702B" transform="translate(25,368)"/>
<path d="M0 0 C1.32 0 2.64 0 4 0 C4.33 0.99 4.66 1.98 5 3 C6.98 2.67 8.96 2.34 11 2 C9.4375 3.5625 9.4375 3.5625 7 5 C3.25 4.6875 3.25 4.6875 0 4 C0 2.68 0 1.36 0 0 Z " fill="#E3721D" transform="translate(384,568)"/>
<path d="M0 0 C2.64 0.33 5.28 0.66 8 1 C7.38125 1.0825 6.7625 1.165 6.125 1.25 C3.81562433 1.81258459 3.81562433 1.81258459 2.75 4.0625 C2.5025 4.701875 2.255 5.34125 2 6 C1.34 6 0.68 6 0 6 C0 4.02 0 2.04 0 0 Z " fill="#E67020" transform="translate(432,54)"/>
<path d="M0 0 C9.59453303 2.70615034 9.59453303 2.70615034 13 7 C11.39253944 6.57476184 9.78910164 6.13429874 8.1875 5.6875 C7.29417969 5.44386719 6.40085938 5.20023438 5.48046875 4.94921875 C2.93860014 3.97650368 1.69392058 3.09911088 0 1 C0 0.67 0 0.34 0 0 Z " fill="#D06923" transform="translate(162,550)"/>
<path d="M0 0 C1.875 0.3125 1.875 0.3125 4 1 C4.66 1.99 5.32 2.98 6 4 C8.05003955 5.19232613 8.05003955 5.19232613 10 6 C8 7 8 7 6.0546875 6.44140625 C5.33539063 6.15136719 4.61609375 5.86132812 3.875 5.5625 C3.15054688 5.27503906 2.42609375 4.98757813 1.6796875 4.69140625 C1.12539062 4.46324219 0.57109375 4.23507812 0 4 C0 2.68 0 1.36 0 0 Z " fill="#DB7025" transform="translate(124,523)"/>
<path d="M0 0 C1.4783226 2.95664519 1.06032783 5.74229737 1 9 C0.01 9.495 0.01 9.495 -1 10 C-3 7 -3 7 -3 3 C-2.34 3 -1.68 3 -1 3 C-0.67 2.01 -0.34 1.02 0 0 Z " fill="#DE7329" transform="translate(573,377)"/>
<path d="M0 0 C0.66 0 1.32 0 2 0 C2.28571429 8.57142857 2.28571429 8.57142857 0 12 C-0.33 12 -0.66 12 -1 12 C-0.67 8.04 -0.34 4.08 0 0 Z " fill="#CD621B" transform="translate(578,360)"/>
<path d="M0 0 C1.32 0 2.64 0 4 0 C4.66 1.65 5.32 3.3 6 5 C4.35 5.66 2.7 6.32 1 7 C0.67 4.69 0.34 2.38 0 0 Z " fill="#E6701E" transform="translate(331,257)"/>
<path d="M0 0 C2.91517292 1.07401108 4.77810176 1.77810176 7 4 C7 4.99 7 5.98 7 7 C5.1875 6.875 5.1875 6.875 3 6 C1.25 2.9375 1.25 2.9375 0 0 Z " fill="#CF6523" transform="translate(327,250)"/>
<path d="M0 0 C4.2742558 1.5830577 6.26531794 4.50568404 9 8 C5.25 9.125 5.25 9.125 3 8 C3 6.68 3 5.36 3 4 C1.58022091 1.77256213 1.58022091 1.77256213 0 0 Z " fill="#E06F25" transform="translate(103,504)"/>
<path d="M0 0 C0.66 0 1.32 0 2 0 C2.67154933 1.28913487 3.33708859 2.58140204 4 3.875 C4.37125 4.59429687 4.7425 5.31359375 5.125 6.0546875 C6 8 6 8 6 10 C5.01 9.67 4.02 9.34 3 9 C2.29788106 7.34795544 1.63028587 5.68076231 1 4 C0.34 3.67 -0.32 3.34 -1 3 C-0.67 2.01 -0.34 1.02 0 0 Z " fill="#E57428" transform="translate(65,456)"/>
<path d="M0 0 C-0.83144531 0.48919922 -0.83144531 0.48919922 -1.6796875 0.98828125 C-2.40414063 1.42527344 -3.12859375 1.86226562 -3.875 2.3125 C-4.59429687 2.74175781 -5.31359375 3.17101562 -6.0546875 3.61328125 C-8.26846333 5.01752375 -8.26846333 5.01752375 -10 8 C-9.63692621 5.31325398 -9.33095772 3.44127696 -7.6875 1.25 C-5.01460937 -0.72991899 -3.0456123 -1.52280615 0 0 Z " fill="#CA6A24" transform="translate(305,252)"/>
<path d="M0 0 C4.3429862 0.65802821 8.07277596 2.03638798 12 4 C12.33 4.99 12.66 5.98 13 7 C8.1725201 5.58707905 4.2837641 3.57025846 0 1 C0 0.67 0 0.34 0 0 Z " fill="#DC7430" transform="translate(419,46)"/>
<path d="M0 0 C8.19256018 0.35010941 8.19256018 0.35010941 11.5625 3.0625 C12.036875 3.701875 12.51125 4.34125 13 5 C11.39402675 4.54803755 9.79027492 4.08817673 8.1875 3.625 C6.84751953 3.24214844 6.84751953 3.24214844 5.48046875 2.8515625 C3 2 3 2 0 0 Z " fill="#D97633" transform="translate(207,570)"/>
<path d="M0 0 C0.66 0.33 1.32 0.66 2 1 C1.34 1.66 0.68 2.32 0 3 C-0.33 3.99 -0.66 4.98 -1 6 C-2 9 -2 9 -4 11 C-4 9.02 -4 7.04 -4 5 C-3.34 5 -2.68 5 -2 5 C-2 3.68 -2 2.36 -2 1 C-1.34 0.67 -0.68 0.34 0 0 Z " fill="#E37129" transform="translate(142,234)"/>
<path d="M0 0 C2.23551759 3.35327639 2.17283528 3.90743657 1.625 7.6875 C1.51414062 8.49574219 1.40328125 9.30398437 1.2890625 10.13671875 C1.19367188 10.75160156 1.09828125 11.36648437 1 12 C0.34 11.67 -0.32 11.34 -1 11 C-1.14285714 3.57142857 -1.14285714 3.57142857 0 0 Z " fill="#C66025" transform="translate(414,216)"/>
<path d="M0 0 C0.87324262 2.44507934 1.10151327 3.67700322 0.3125 6.1875 C-1 8 -1 8 -3.125 8.75 C-4.053125 8.87375 -4.053125 8.87375 -5 9 C-3.7508258 5.54074837 -2.32472205 2.85306797 0 0 Z " fill="#D56D18" transform="translate(67,140)"/>
<path d="M0 0 C-0.1875 1.8125 -0.1875 1.8125 -1 4 C-3.5625 5.75 -3.5625 5.75 -6 7 C-5.39816251 4.97954558 -4.72693904 2.97888961 -4 1 C-2 0 -2 0 0 0 Z " fill="#DF7325" transform="translate(301,255)"/>
<path d="M0 0 C2.02350324 3.03525486 2.32124018 4.19426202 2.625 7.6875 C2.69976563 8.49574219 2.77453125 9.30398437 2.8515625 10.13671875 C2.90054688 10.75160156 2.94953125 11.36648437 3 12 C1.09598862 10.09598862 0.06479561 8.66574314 -0.19921875 5.953125 C-0.1886578 3.96766727 -0.09915043 1.9830086 0 0 Z " fill="#DF722C" transform="translate(572,220)"/>
<path d="M0 0 C0.33 0 0.66 0 1 0 C1.19392201 5.52677733 0.7479503 9.75614911 -1 15 C-1.33 15 -1.66 15 -2 15 C-3.25 8.375 -3.25 8.375 -1 5 C-0.61500109 3.34450469 -0.27206865 1.6777567 0 0 Z " fill="#D8742F" transform="translate(396,208)"/>
<path d="M0 0 C3.35595828 0.59927826 5.37801226 1.84622436 8 4 C7.67 4.99 7.34 5.98 7 7 C5.83040013 6.02433888 4.66438823 5.044375 3.5 4.0625 C2.8503125 3.51722656 2.200625 2.97195313 1.53125 2.41015625 C1.0259375 1.94480469 0.520625 1.47945312 0 1 C0 0.67 0 0.34 0 0 Z " fill="#D56518" transform="translate(116,519)"/>
<path d="M0 0 C4.75 0.75 4.75 0.75 7 3 C5.68 3.99 4.36 4.98 3 6 C3 5.01 3 4.02 3 3 C2.01 3 1.02 3 0 3 C0 2.01 0 1.02 0 0 Z " fill="#EC650A" transform="translate(499,500)"/>
<path d="M0 0 C0 3.86695678 -1.41909971 6.5088452 -3 10 C-3.66 10 -4.32 10 -5 10 C-4.50769231 3.47692308 -4.50769231 3.47692308 -1.9375 1.0625 C-0.9784375 0.5365625 -0.9784375 0.5365625 0 0 Z " fill="#D06F2B" transform="translate(64,147)"/>
<path d="M0 0 C2.475 0.99 2.475 0.99 5 2 C4.67 3.32 4.34 4.64 4 6 C2.0625 5.1875 2.0625 5.1875 0 4 C-0.33 3.01 -0.66 2.02 -1 1 C-0.67 0.67 -0.34 0.34 0 0 Z " fill="#F56B0E" transform="translate(119,88)"/>
<path d="M0 0 C1.32 0.33 2.64 0.66 4 1 C1.36 2.98 -1.28 4.96 -4 7 C-2.92598892 4.08482708 -2.22189824 2.22189824 0 0 Z " fill="#CF6F26" transform="translate(118,84)"/>
<path d="M0 0 C0.66 0 1.32 0 2 0 C1.4409112 3.24271506 0.5867822 4.93057424 -2 7 C-2.66 7 -3.32 7 -4 7 C-2.79618552 4.50638429 -1.54571278 2.31856917 0 0 Z " fill="#D9671E" transform="translate(508,495)"/>
<path d="M0 0 C0.66 0.33 1.32 0.66 2 1 C1.67 2.65 1.34 4.3 1 6 C-0.65 5.67 -2.3 5.34 -4 5 C-2.68 3.35 -1.36 1.7 0 0 Z " fill="#E77020" transform="translate(117,88)"/>
<path d="M0 0 C1.98 0 3.96 0 6 0 C6 0.99 6 1.98 6 3 C4.02 3 2.04 3 0 3 C0 2.01 0 1.02 0 0 Z " fill="#F66C0A" transform="translate(452,536)"/>
<path d="M0 0 C2.0625 0.4375 2.0625 0.4375 4 1 C-0.75 5 -0.75 5 -3 5 C-1.125 1.125 -1.125 1.125 0 0 Z " fill="#D86F29" transform="translate(476,523)"/>
<path d="M0 0 C0.99 0.33 1.98 0.66 3 1 C4.31223496 4.93670488 3.24296256 7.12488144 2 11 C1.67 11 1.34 11 1 11 C1 8.69 1 6.38 1 4 C0.34 3.67 -0.32 3.34 -1 3 C-0.67 2.01 -0.34 1.02 0 0 Z " fill="#E7711E" transform="translate(388,247)"/>
<path d="M0 0 C0.66 0 1.32 0 2 0 C0.73058503 3.91402949 -0.51167694 5.79072873 -4 8 C-2.25 2.25 -2.25 2.25 0 0 Z " fill="#D65615" transform="translate(152,223)"/>
<path d="M0 0 C0.99 0.33 1.98 0.66 3 1 C3.8125 2.8125 3.8125 2.8125 4 5 C3.0625 7.25 3.0625 7.25 2 9 C0 3.375 0 3.375 0 0 Z " fill="#D46A2C" transform="translate(569,210)"/>
<path d="M0 0 C1.32 0 2.64 0 4 0 C4.33 1.32 4.66 2.64 5 4 C3.35 4 1.7 4 0 4 C0 2.68 0 1.36 0 0 Z " fill="#F16C0B" transform="translate(208,118)"/>
<path d="M0 0 C-3.20380017 2.13586678 -4.01939967 2.23132175 -7.6875 2.125 C-8.89986328 2.09792969 -8.89986328 2.09792969 -10.13671875 2.0703125 C-11.05904297 2.03550781 -11.05904297 2.03550781 -12 2 C-12 1.67 -12 1.34 -12 1 C-3.96428571 -1.27678571 -3.96428571 -1.27678571 0 0 Z " fill="#E56F26" transform="translate(348,491)"/>
<path d="M0 0 C0.66 0 1.32 0 2 0 C1.67 1.65 1.34 3.3 1 5 C-1.97 5 -4.94 5 -8 5 C-8 4.67 -8 4.34 -8 4 C-4.535 3.505 -4.535 3.505 -1 3 C-0.67 2.01 -0.34 1.02 0 0 Z " fill="#E57221" transform="translate(384,272)"/>
<path d="M0 0 C-0.8125 1.9375 -0.8125 1.9375 -2 4 C-2.99 4.33 -3.98 4.66 -5 5 C-5.66 4.34 -6.32 3.68 -7 3 C-2.25 0 -2.25 0 0 0 Z " fill="#D9641C" transform="translate(152,248)"/>
</svg>
